<svg width="134" height="156" viewBox="0 0 134 156" fill="none" xmlns="http://www.w3.org/2000/svg">
<g opacity="0.3">
<path fill-rule="evenodd" clip-rule="evenodd" d="M10 2H47.5083C51.9266 2 55.5083 5.58172 55.5083 10V56.5376C55.5083 60.9559 51.9266 64.5376 47.5083 64.5376H10C5.58173 64.5376 2 60.9559 2 56.5376V10C2 5.58173 5.58172 2 10 2ZM0 10C0 4.47716 4.47715 0 10 0H47.5083C53.0312 0 57.5083 4.47715 57.5083 10V56.5376C57.5083 62.0605 53.0312 66.5376 47.5083 66.5376H10C4.47716 66.5376 0 62.0605 0 56.5376V10ZM10 91.4624H47.5083C51.9266 91.4624 55.5083 95.0441 55.5083 99.4624V146C55.5083 150.418 51.9266 154 47.5083 154H10C5.58173 154 2 150.418 2 146V99.4624C2 95.0441 5.58172 91.4624 10 91.4624ZM0 99.4624C0 93.9395 4.47715 89.4624 10 89.4624H47.5083C53.0312 89.4624 57.5083 93.9395 57.5083 99.4624V146C57.5083 151.523 53.0312 156 47.5083 156H10C4.47716 156 0 151.523 0 146V99.4624ZM124 2H86.4917C82.0734 2 78.4917 5.58173 78.4917 10V56.5376C78.4917 60.9559 82.0734 64.5376 86.4917 64.5376H124C128.418 64.5376 132 60.9559 132 56.5376V10C132 5.58172 128.418 2 124 2ZM86.4917 0C80.9688 0 76.4917 4.47716 76.4917 10V56.5376C76.4917 62.0605 80.9688 66.5376 86.4917 66.5376H124C129.523 66.5376 134 62.0605 134 56.5376V10C134 4.47715 129.523 0 124 0H86.4917ZM86.4917 91.4624H124C128.418 91.4624 132 95.0441 132 99.4624V146C132 150.418 128.418 154 124 154H86.4917C82.0734 154 78.4917 150.418 78.4917 146V99.4624C78.4917 95.0441 82.0734 91.4624 86.4917 91.4624ZM76.4917 99.4624C76.4917 93.9395 80.9688 89.4624 86.4917 89.4624H124C129.523 89.4624 134 93.9395 134 99.4624V146C134 151.523 129.523 156 124 156H86.4917C80.9688 156 76.4917 151.523 76.4917 146V99.4624Z" fill="#46518A"/>
</g>
</svg>
