<svg width="17" height="17" viewBox="0 0 17 17" fill="none" xmlns="http://www.w3.org/2000/svg">
<g clip-path="url(#clip0_140_221)">
<path d="M2.90598 0.5H13.5043C15.1111 0.5 16.4103 1.79915 16.4103 3.40598V13.594C16.4103 15.2009 15.1111 16.5 13.5043 16.5H2.90598C1.29915 16.5 0 15.2009 0 13.594V3.40598C0 1.79915 1.29915 0.5 2.90598 0.5Z" fill="#330000"/>
<path d="M7.93158 10.0726H5.38799L4.86833 11.6795C4.85465 11.741 4.79995 11.782 4.73841 11.7752H3.45294C3.37773 11.7752 3.35722 11.7342 3.37773 11.6521L5.57944 5.31366C5.59995 5.24529 5.62047 5.17007 5.64782 5.08802C5.67517 4.94443 5.68884 4.794 5.68884 4.64358C5.682 4.60939 5.70935 4.5752 5.74354 4.56836H7.51448C7.56918 4.56836 7.59653 4.58888 7.60337 4.62306L10.0991 11.6658C10.1196 11.741 10.0991 11.7752 10.0307 11.7752H8.60166C8.5538 11.782 8.50594 11.7479 8.49226 11.7L7.93158 10.0726ZM5.78457 8.6846H7.52132C7.48029 8.54101 7.42559 8.37007 7.36405 8.1923C7.30252 8.00768 7.24098 7.80939 7.17944 7.60426C7.11106 7.3923 7.04952 7.18717 6.98115 6.9752C6.91277 6.76324 6.85123 6.56495 6.79653 6.36665C6.74183 6.1752 6.69397 5.99742 6.64611 5.83332H6.63243C6.57089 6.12734 6.49568 6.42136 6.39995 6.71537C6.29739 7.04358 6.19482 7.38546 6.08542 7.72734C5.9897 8.07606 5.88713 8.39742 5.78457 8.6846ZM11.6239 5.76495C11.3982 5.77178 11.1794 5.68289 11.0153 5.52563C10.8581 5.35469 10.776 5.12905 10.7829 4.89657C10.776 4.66409 10.8649 4.44529 11.029 4.28802C11.1931 4.13076 11.4119 4.04871 11.6376 4.04871C11.9042 4.04871 12.1094 4.13076 12.2598 4.28802C12.4102 4.45212 12.4923 4.67093 12.4854 4.89657C12.4923 5.12905 12.4102 5.35469 12.2461 5.52563C12.0888 5.68973 11.8564 5.77862 11.6239 5.76495ZM10.8581 11.7V6.43503C10.8581 6.36665 10.8854 6.3393 10.947 6.3393H12.3008C12.3623 6.3393 12.3897 6.37349 12.3897 6.43503V11.7C12.3897 11.7752 12.3623 11.8094 12.3008 11.8094H10.9606C10.8923 11.8094 10.8581 11.7684 10.8581 11.7Z" fill="#FF9A00"/>
</g>
<defs>
<clipPath id="clip0_140_221">
<rect width="16.4103" height="16" fill="white" transform="translate(0 0.5)"/>
</clipPath>
</defs>
</svg>
