<svg width="33" height="33" viewBox="0 0 33 33" fill="none" xmlns="http://www.w3.org/2000/svg">
<path d="M26.389 25.1283C23.332 26.4258 19.684 27.138 16.5 27.138C13.316 27.138 9.67635 26.4097 6.61031 25.1283C3.54428 23.847 3.09375 22.7623 3.09375 22.7623V25.2244C3.09375 27.2321 4.25391 28.0371 7.43273 29.3719C9.86971 30.3955 13.0956 30.9375 16.5 30.9375C19.9044 30.9375 23.1303 30.3955 25.5673 29.3719C28.7461 28.0371 29.9062 27.2321 29.9062 25.2244V22.7623C29.9062 22.7623 29.4461 23.8315 26.389 25.1283Z" fill="#7A83A8"/>
<path d="M4.10503 11.1646C4.82884 11.7988 5.89812 12.4208 7.19878 12.9641C9.93675 14.1088 13.4153 14.7926 16.5032 14.7926C19.5912 14.7926 23.0697 14.1088 25.8077 12.9641C27.1051 12.4208 28.1744 11.7988 28.8982 11.1646C29.2888 10.8223 29.5975 10.5123 29.7664 10.3363C29.8584 10.2402 29.9096 10.1123 29.9095 9.97928V8.29963V8.29318C29.8553 6.43758 28.3169 4.78629 25.5776 3.64354C23.1277 2.62389 19.9057 2.0625 16.5 2.0625C13.0943 2.0625 9.8723 2.62389 7.42888 3.64354C4.69542 4.78371 3.15822 6.43113 3.09699 8.28223V9.97928C3.09666 10.1122 3.14769 10.2401 3.23943 10.3363C3.40572 10.5123 3.7138 10.8223 4.10503 11.1646Z" fill="#7A83A8"/>
<path d="M26.389 14.3028C23.5254 15.5332 19.684 16.3124 16.5 16.3124C13.316 16.3124 9.48299 15.5216 6.61096 14.3028C3.73893 13.084 3.09375 11.9367 3.09375 11.9367V14.9892C3.09891 15.4739 3.44824 16.0333 4.10502 16.6089C4.82947 17.2431 5.89811 17.8657 7.19877 18.4084C9.93352 19.5538 13.4121 20.2383 16.5 20.2383C19.5879 20.2383 23.0665 19.5551 25.8045 18.4097C27.1019 17.867 28.1712 17.2444 28.895 16.6102C29.5556 16.0301 29.9056 15.4687 29.9062 14.9815V11.9367C29.9062 11.9367 29.2533 13.0724 26.389 14.3028Z" fill="#7A83A8"/>
<path d="M26.389 19.7472C23.332 21.0117 19.684 21.7568 16.5 21.7568C13.316 21.7568 9.41854 20.9318 6.61096 19.7472C3.80338 18.5625 3.09375 17.3811 3.09375 17.3811V20.3621C3.09375 20.8487 3.44437 21.4114 4.10502 21.9901C4.82883 22.6244 5.89746 23.247 7.19877 23.7897C9.93674 24.935 13.4146 25.6182 16.5032 25.6182C19.5918 25.6182 23.0697 24.935 25.8077 23.7897C27.1051 23.2463 28.1744 22.6244 28.8982 21.9901C29.555 21.4146 29.9043 20.8551 29.9095 20.3704V17.3811C29.9095 17.3811 29.4467 18.4826 26.389 19.7472Z" fill="#7A83A8"/>
</svg>
