<svg width="212" height="235" viewBox="0 0 212 235" fill="none" xmlns="http://www.w3.org/2000/svg">
<path fill-rule="evenodd" clip-rule="evenodd" d="M0 0.088623H8V3.70703H102V0.088623H110V3.70703H204V1.08862H212V9.08862H208.177V113.089H212V121.089H208.177V226.089H212V234.089H204V230.473H110V234.089H102V230.473H8V234.089H0V226.089H3.1817V122.089H0V114.089H3.1817V8.08862H0V0.088623ZM4.1817 122.089H8V114.089H4.1817V8.08862H8V4.70703H102V8.08862H110V4.70703H204V9.08862H207.177V113.089H204V121.089H207.177V226.089H204V229.473H110V226.089H102V229.473H8V226.089H4.1817V122.089Z" fill="white"/>
</svg>
