<svg width="20" height="17" viewBox="0 0 20 17" fill="none" xmlns="http://www.w3.org/2000/svg">
<g clip-path="url(#clip0_140_224)">
<path d="M7.79364 9.46419C7.86319 8.22402 8.46949 7.12822 9.38813 6.35393C10.2871 5.59277 11.4945 5.12689 12.8199 5.12689C14.1388 5.12689 15.3462 5.59212 16.2451 6.35393C17.1638 7.12822 17.7675 8.22402 17.8396 9.46419C17.9092 10.7372 17.3967 11.9248 16.501 12.8041C15.5824 13.6965 14.2832 14.2608 12.8199 14.2608C11.3567 14.2608 10.0509 13.7004 9.13879 12.8041C8.23984 11.9248 7.72802 10.7437 7.80019 9.47075L7.79364 9.46419Z" fill="white"/>
<path d="M10.5429 9.31226C10.5787 8.67495 10.8903 8.11183 11.3623 7.71394C11.8243 7.32278 12.4447 7.08337 13.1259 7.08337C13.8037 7.08337 14.4241 7.32245 14.8861 7.71394C15.3582 8.11183 15.6684 8.67495 15.7055 9.31226C15.7412 9.96643 15.4779 10.5768 15.0176 11.0286C14.5455 11.4872 13.8778 11.7772 13.1259 11.7772C12.3739 11.7772 11.7029 11.4892 11.2342 11.0286C10.7722 10.5768 10.5092 9.9698 10.5463 9.31564L10.5429 9.31226Z" fill="#265787"/>
<path d="M6.4965 10.6611C6.50088 10.9106 6.58046 11.3962 6.69983 11.7738C6.9507 12.5764 7.3776 13.3182 7.9677 13.969C8.57466 14.64 9.32324 15.1796 10.1865 15.564C11.0935 15.9652 12.0782 16.1709 13.0999 16.1709C14.1216 16.1696 15.1062 15.9605 16.0133 15.5538C16.8765 15.1661 17.6251 14.6265 18.2321 13.9521C18.8255 13.2946 19.2504 12.5528 19.4999 11.7502C19.6264 11.3456 19.7063 10.9342 19.7383 10.5228C19.7697 10.1182 19.7566 9.71017 19.6989 9.30216C19.5863 8.50974 19.3111 7.76452 18.8896 7.09012C18.5052 6.4663 18.0061 5.92341 17.4127 5.46482L17.414 5.46381L11.4456 0.877887C11.4402 0.873841 11.4358 0.869453 11.4301 0.865744C11.0389 0.564962 10.378 0.565975 9.94976 0.867432C9.51477 1.17226 9.4642 1.67671 9.85198 1.99368L9.85029 1.99537L12.3422 4.02194L4.7552 4.03003H4.74508C4.11789 4.0307 3.5143 4.44142 3.39628 4.96408C3.27354 5.49348 3.69976 5.93521 4.35393 5.93521L4.35292 5.93757L8.197 5.93016L1.31812 11.1905C1.30935 11.1969 1.29991 11.2036 1.29182 11.21C0.644391 11.7057 0.435326 12.5319 0.843338 13.0511C1.25809 13.5806 2.13819 13.5839 2.79235 13.0542L6.53528 9.98566C6.53528 9.98566 6.48065 10.4004 6.48503 10.6466L6.4965 10.6611ZM16.1404 12.047C15.3682 12.8326 14.2858 13.2811 13.1191 13.2811C11.949 13.2831 10.8666 12.8428 10.0944 12.0571C9.71676 11.6727 9.44025 11.2343 9.26828 10.7656C9.10069 10.3036 9.03561 9.8147 9.07878 9.32239C9.11958 8.84019 9.26322 8.37823 9.49353 7.96347C9.71878 7.55546 10.0297 7.18454 10.4107 6.87095C11.1627 6.26061 12.1169 5.92678 13.1151 5.92678C14.1165 5.92543 15.0708 6.25353 15.8228 6.8642C16.2038 7.17577 16.514 7.54534 16.74 7.95336C16.9703 8.36811 17.1143 8.8267 17.1547 9.31227C17.1972 9.80458 17.1321 10.2935 16.9645 10.7555C16.7932 11.2276 16.5161 11.6659 16.1384 12.0503L16.1404 12.047Z" fill="#EA7600"/>
</g>
<defs>
<clipPath id="clip0_140_224">
<rect width="19.5676" height="16" fill="white" transform="translate(0.410278 0.5)"/>
</clipPath>
</defs>
</svg>
