<svg width="33" height="33" viewBox="0 0 33 33" fill="none" xmlns="http://www.w3.org/2000/svg">
<g clip-path="url(#clip0_134_63)">
<path fill-rule="evenodd" clip-rule="evenodd" d="M24.1297 23.5918L21.5596 30.1837L12.085 30.0571L9.4639 23.5891C11.7171 19.5467 14.0052 14.6149 15.1814 10.3002L16.4302 10.435L16.3819 22.0611C16.114 22.1622 15.8909 22.3559 15.7525 22.6073C15.6141 22.8586 15.5696 23.1513 15.6268 23.4327C15.6841 23.714 15.8394 23.9657 16.065 24.1425C16.2905 24.3193 16.5714 24.4096 16.8573 24.3973C17.1432 24.385 17.4154 24.2708 17.625 24.0752C17.8345 23.8796 17.9678 23.6155 18.0007 23.3302C18.0337 23.0449 17.9643 22.7572 17.8049 22.5187C17.6455 22.2801 17.4066 22.1064 17.1311 22.0287L17.1714 10.5104L18.6001 10.4457C19.6475 14.7954 21.9141 19.7111 24.1297 23.5972V23.5918ZM14.3462 0H19.2984C19.3854 -7.21186e-07 19.4715 0.0172363 19.5518 0.0507217C19.6321 0.0842072 19.7051 0.133282 19.7665 0.19513C19.8279 0.256977 19.8765 0.33038 19.9095 0.411126C19.9425 0.491872 19.9594 0.578371 19.959 0.665659V2.28265H27.7686C27.9023 1.90124 28.1198 1.55492 28.4051 1.26933C28.6545 1.01877 28.9507 0.819986 29.2767 0.684363C29.6027 0.54874 29.9522 0.478933 30.3051 0.478933C30.658 0.478933 31.0075 0.54874 31.3335 0.684363C31.6595 0.819986 31.9557 1.01877 32.2051 1.26933C32.4548 1.51963 32.6529 1.81685 32.788 2.14402C32.9232 2.47118 32.9928 2.82187 32.9928 3.17603C32.9928 3.53019 32.9232 3.88088 32.788 4.20805C32.6529 4.53521 32.4548 4.83244 32.2051 5.08273C31.9556 5.33411 31.6591 5.53357 31.3326 5.66967C31.0061 5.80577 30.656 5.87583 30.3024 5.87583C29.9488 5.87583 29.5988 5.80577 29.2722 5.66967C28.9457 5.53357 28.6492 5.33411 28.3997 5.08273L28.3514 5.02883C28.089 4.75399 27.8885 4.42592 27.7632 4.06672H23.7349C25.0361 4.82613 26.2136 5.78138 27.2261 6.89914C29.2438 9.13099 30.5788 11.8984 31.0718 14.8709H32.146C32.3597 14.8709 32.5646 14.9561 32.7157 15.1077C32.8668 15.2593 32.9517 15.465 32.9517 15.6794V19.3203C32.9517 19.5347 32.8668 19.7404 32.7157 19.892C32.5646 20.0436 32.3597 20.1288 32.146 20.1288H28.5823C28.3686 20.1288 28.1637 20.0436 28.0126 19.892C27.8615 19.7404 27.7766 19.5347 27.7766 19.3203V15.6794C27.7766 15.465 27.8615 15.2593 28.0126 15.1077C28.1637 14.9561 28.3686 14.8709 28.5823 14.8709H29.4121C28.9338 12.3168 27.7598 9.94556 26.0203 8.02025C24.3974 6.21627 22.2943 4.91558 19.959 4.27154V5.69449C19.959 5.87057 19.8895 6.03947 19.7657 6.16423C19.6419 6.28899 19.4738 6.35943 19.2984 6.36015H14.3462C14.1729 6.35594 14.008 6.28404 13.8866 6.15973C13.7652 6.03542 13.697 5.86851 13.6963 5.69449V4.27423C11.3003 4.93827 9.15207 6.29546 7.51957 8.17656C5.85475 10.0787 4.72642 12.3926 4.25126 14.879H5.05692C5.2706 14.879 5.47552 14.9642 5.62661 15.1158C5.7777 15.2674 5.86259 15.473 5.86259 15.6875V19.3203C5.86259 19.5347 5.7777 19.7404 5.62661 19.892C5.47552 20.0436 5.2706 20.1288 5.05692 20.1288H1.4744C1.26073 20.1288 1.0558 20.0436 0.904712 19.892C0.753621 19.7404 0.668739 19.5347 0.668739 19.3203V15.6794C0.668739 15.465 0.753621 15.2593 0.904712 15.1077C1.0558 14.9561 1.26073 14.8709 1.4744 14.8709H2.57548C3.07038 11.9808 4.35208 9.28438 6.27885 7.07971C7.32798 5.88601 8.56329 4.87117 9.93656 4.07481H5.23148C5.0974 4.45525 4.87989 4.80062 4.59501 5.08542C4.09244 5.5889 3.4116 5.87213 2.70146 5.87314C1.99132 5.87415 1.30969 5.59286 0.805701 5.09081C0.556009 4.84052 0.357926 4.5433 0.222777 4.21613C0.0876292 3.88897 0.0180664 3.53828 0.0180664 3.18412C0.0180664 2.82995 0.0876292 2.47927 0.222777 2.1521C0.357926 1.82494 0.556009 1.52771 0.805701 1.27742C1.05512 1.02685 1.3513 0.828071 1.67732 0.692448C2.00334 0.556825 2.3528 0.487018 2.70573 0.487018C3.05865 0.487018 3.40811 0.556825 3.73413 0.692448C4.06015 0.828071 4.35634 1.02685 4.60575 1.27742C4.89339 1.56261 5.11204 1.91019 5.24491 2.29343H13.6963V0.676439C13.6934 0.500347 13.7602 0.330287 13.882 0.203502C14.0038 0.0767174 14.1708 0.00354142 14.3462 0ZM21.3287 33H12.1387V31.162H21.334V33H21.3287Z" fill="#7A83A8"/>
</g>
<defs>
<clipPath id="clip0_134_63">
<rect width="33" height="33" fill="white"/>
</clipPath>
</defs>
</svg>
