<svg width="35" height="23" viewBox="0 0 35 23" fill="none" xmlns="http://www.w3.org/2000/svg">
<rect width="34.4076" height="23" rx="9" fill="white"/>
<path d="M28.4076 17.6629C27.5925 17.8701 27.0883 17.672 26.636 16.9927L23.4191 12.542L22.9541 11.9258L19.1974 17.0074C18.7681 17.6188 18.3179 17.8848 17.5168 17.6685L22.3274 11.2109L17.8487 5.37792C18.619 5.22807 19.1511 5.3044 19.6238 5.99413L22.9604 10.5002L26.3216 6.01864C26.7522 5.40733 27.2151 5.17485 27.9881 5.40033L26.2515 7.70271L23.8987 10.7662C23.6186 11.1164 23.6572 11.3558 23.9148 11.6941L28.4076 17.6629ZM6.0056 11.1031L6.39913 9.1676C7.4705 5.33731 11.861 3.74567 14.8888 6.11247C16.6583 7.50454 17.098 9.4736 17.0105 11.6793H7.03635C6.8865 15.6497 9.74416 18.0459 13.3875 16.8233C14.6654 16.394 15.4182 15.3934 15.7949 14.1414C15.9861 13.514 16.3026 13.4159 16.8922 13.5952C16.5911 15.1609 15.9118 16.469 14.4764 17.2875C12.3315 18.513 9.2701 18.1166 7.65956 16.4136C6.70024 15.4256 6.3039 14.1736 6.12604 12.8347C6.09803 12.6135 6.04201 12.4027 6 12.1905C6.00373 11.8283 6.0056 11.466 6.0056 11.1038V11.1031ZM7.05456 10.837H16.068C16.0092 7.96599 14.2215 5.92691 11.7784 5.9094C9.09644 5.88839 7.1708 7.87917 7.05456 10.837Z" fill="black"/>
</svg>
