<svg width="29" height="29" viewBox="0 0 29 29" fill="none" xmlns="http://www.w3.org/2000/svg">
<path fill-rule="evenodd" clip-rule="evenodd" d="M7.25 12.0833C7.25 11.416 7.79099 10.875 8.45833 10.875H25.375C26.0423 10.875 26.5833 11.416 26.5833 12.0833C26.5833 12.7507 26.0423 13.2917 25.375 13.2917H8.45833C7.79099 13.2917 7.25 12.7507 7.25 12.0833Z" fill="white"/>
<path fill-rule="evenodd" clip-rule="evenodd" d="M2.41669 7.25008C2.41669 6.58274 2.95768 6.04175 3.62502 6.04175H25.375C26.0424 6.04175 26.5834 6.58274 26.5834 7.25008C26.5834 7.91743 26.0424 8.45841 25.375 8.45841H3.62502C2.95768 8.45841 2.41669 7.91743 2.41669 7.25008Z" fill="white"/>
<path fill-rule="evenodd" clip-rule="evenodd" d="M2.41669 16.9166C2.41669 16.2492 2.95768 15.7083 3.62502 15.7083H25.375C26.0424 15.7083 26.5834 16.2492 26.5834 16.9166C26.5834 17.5839 26.0424 18.1249 25.375 18.1249H3.62502C2.95768 18.1249 2.41669 17.5839 2.41669 16.9166Z" fill="white"/>
<path fill-rule="evenodd" clip-rule="evenodd" d="M7.25 21.7501C7.25 21.0827 7.79099 20.5417 8.45833 20.5417H25.375C26.0423 20.5417 26.5833 21.0827 26.5833 21.7501C26.5833 22.4174 26.0423 22.9584 25.375 22.9584H8.45833C7.79099 22.9584 7.25 22.4174 7.25 21.7501Z" fill="white"/>
</svg>
