<svg width="11" height="17" viewBox="0 0 11 17" fill="none" xmlns="http://www.w3.org/2000/svg">
<g clip-path="url(#clip0_140_183)">
<path d="M2.66777 16.5C4.13977 16.5 5.33443 15.3054 5.33443 13.8334V11.1667H2.66777C1.19577 11.1667 0.00109863 12.3614 0.00109863 13.8334C0.00109863 15.3054 1.19577 16.5 2.66777 16.5Z" fill="#0ACF83"/>
<path d="M0.00109863 8.49998C0.00109863 7.02798 1.19577 5.83331 2.66777 5.83331H5.33443V11.1666H2.66777C1.19577 11.1666 0.00109863 9.97198 0.00109863 8.49998Z" fill="#A259FF"/>
<path d="M0.00134277 3.16667C0.00134277 1.69467 1.19601 0.5 2.66801 0.5H5.33468V5.83333H2.66801C1.19601 5.83333 0.00134277 4.63867 0.00134277 3.16667Z" fill="#F24E1E"/>
<path d="M5.33435 0.5H8.00102C9.47302 0.5 10.6677 1.69467 10.6677 3.16667C10.6677 4.63867 9.47302 5.83333 8.00102 5.83333H5.33435V0.5Z" fill="#FF7262"/>
<path d="M10.6677 8.49998C10.6677 9.97198 9.47302 11.1666 8.00102 11.1666C6.52902 11.1666 5.33435 9.97198 5.33435 8.49998C5.33435 7.02798 6.52902 5.83331 8.00102 5.83331C9.47302 5.83331 10.6677 7.02798 10.6677 8.49998Z" fill="#1ABCFE"/>
</g>
<defs>
<clipPath id="clip0_140_183">
<rect width="10.6688" height="16" fill="white" transform="translate(0 0.5)"/>
</clipPath>
</defs>
</svg>
