<svg width="58" height="58" viewBox="0 0 58 58" fill="none" xmlns="http://www.w3.org/2000/svg">
<path fill-rule="evenodd" clip-rule="evenodd" d="M29 58C45.0163 58 58 45.0163 58 29C58 12.9837 45.0163 0 29 0C12.9837 0 0 12.9837 0 29C0 45.0163 12.9837 58 29 58ZM36.0739 21.5847C37.7682 21.5847 39.1416 20.2113 39.1416 18.517C39.1416 16.8228 37.7682 15.4493 36.0739 15.4493C34.3796 15.4493 33.0062 16.8228 33.0062 18.517C33.0062 20.2113 34.3796 21.5847 36.0739 21.5847ZM25.2359 23.5964H39.2786V37.9485H41.6659V42.5507H30.5173V37.9485H32.9V28.2328H25.2336V37.9485H28.0296V42.5553H16.5088V37.9531H18.8949V28.2374H16.3375V23.6352H18.8949V22.8463C18.8949 16.6412 24.3157 15.8238 27.2475 15.8238C27.9997 15.8213 28.7513 15.8666 29.4978 15.9596V20.9374C29.4978 20.9374 29.0194 20.8347 27.9634 20.8347C27.0431 20.8347 25.2359 20.8689 25.2359 22.6762V23.5964Z" fill="#7094DA"/>
</svg>
