<svg width="46" height="33" viewBox="0 0 46 33" fill="none" xmlns="http://www.w3.org/2000/svg">
<path fill-rule="evenodd" clip-rule="evenodd" d="M11.6303 8.61374L4.92248 15.3216V17.3878L11.7221 24.6124H14.5878C15.1401 24.6124 15.5878 25.0601 15.5878 25.6124V28.9451C15.5878 29.4974 15.1401 29.9451 14.5878 29.9451H11.6653C11.113 29.9451 10.6653 29.4974 10.6653 28.9451V26.116L3.84514 18.8695H1C0.447715 18.8695 0 18.4218 0 17.8695V14.5368C0 13.9845 0.447715 13.5368 0.999999 13.5368H3.92248C3.99659 13.5368 4.06881 13.5449 4.13832 13.5602L10.6653 7.03316V4.28166C10.6653 3.72937 11.113 3.28166 11.6653 3.28166H14.5878C15.1401 3.28166 15.5878 3.72937 15.5878 4.28166V7.61435C15.5878 8.16663 15.1401 8.61435 14.5878 8.61435H11.6653C11.6536 8.61435 11.642 8.61414 11.6303 8.61374Z" fill="#7A83A8"/>
<path fill-rule="evenodd" clip-rule="evenodd" d="M33.4924 8.61374L40.2003 15.3216V17.3878L33.4007 24.6124H30.5348C29.9825 24.6124 29.5348 25.0601 29.5348 25.6124V28.9451C29.5348 29.4974 29.9825 29.9451 30.5348 29.9451H33.4573C34.0096 29.9451 34.4573 29.4974 34.4573 28.9451V26.1161L41.2776 18.8695H44.1228C44.675 18.8695 45.1228 18.4218 45.1228 17.8695V14.5368C45.1228 13.9845 44.675 13.5368 44.1228 13.5368H41.2003C41.1262 13.5368 41.0539 13.5449 40.9844 13.5602L34.4573 7.03304V4.28166C34.4573 3.72937 34.0096 3.28166 33.4573 3.28166H30.5348C29.9825 3.28166 29.5348 3.72937 29.5348 4.28166V7.61435C29.5348 8.16663 29.9825 8.61435 30.5348 8.61435H33.4573C33.4691 8.61435 33.4808 8.61414 33.4924 8.61374Z" fill="#7A83A8"/>
<path fill-rule="evenodd" clip-rule="evenodd" d="M26.1957 0C25.0041 0 24.0381 0.966029 24.0381 2.15769C24.0381 2.78714 24.3076 3.35364 24.7375 3.74807L22.2278 13.5924L21.5254 13.4302C20.9873 13.306 20.4504 13.6415 20.3261 14.1797L19.6687 17.0272C19.5445 17.5654 19.88 18.1023 20.4181 18.2266L21.0114 18.3635L18.3781 28.6927C17.2744 28.7879 16.4083 29.7139 16.4083 30.8423C16.4083 32.0339 17.3743 33 18.566 33C19.7576 33 20.7237 32.0339 20.7237 30.8423C20.7237 30.2353 20.4731 29.6869 20.0697 29.2948C20.0892 29.2502 20.1054 29.2034 20.1179 29.1546L22.7657 18.7686L23.6654 18.9763C24.2035 19.1005 24.7405 18.765 24.8647 18.2268L25.5221 15.3793C25.6464 14.8411 25.3108 14.3042 24.7727 14.1799L23.9821 13.9974L26.4544 4.30003C27.5241 4.17224 28.3534 3.26181 28.3534 2.15769C28.3534 0.966029 27.3874 0 26.1957 0Z" fill="#7A83A8"/>
</svg>
