<svg width="63" height="63" viewBox="0 0 63 63" fill="none" xmlns="http://www.w3.org/2000/svg">
<path d="M31.5 3.9375C16.2791 3.9375 3.9375 16.599 3.9375 32.2014C3.9375 44.6906 11.8371 55.2727 22.7883 59.0133C22.9419 59.0466 23.0987 59.0631 23.2559 59.0625C24.2771 59.0625 24.6709 58.3119 24.6709 57.6598C24.6709 56.983 24.6463 55.2111 24.634 52.8486C23.7223 53.0624 22.7895 53.1738 21.8531 53.1809C16.5498 53.1809 15.3439 49.0588 15.3439 49.0588C14.0889 45.798 12.2801 44.9244 12.2801 44.9244C9.88066 43.2387 12.2678 43.1895 12.4523 43.1895H12.4646C15.2332 43.4355 16.6852 46.118 16.6852 46.118C18.0633 48.5297 19.909 49.2064 21.5578 49.2064C22.6481 49.1846 23.7214 48.9331 24.7078 48.4682C24.9539 46.6471 25.6676 45.4043 26.4551 44.6906C20.3396 43.977 13.9043 41.5529 13.9043 30.7248C13.9043 27.6363 14.9748 25.1139 16.7344 23.1451C16.4514 22.4314 15.5039 19.5521 17.0051 15.6639C17.2064 15.6157 17.4134 15.595 17.6203 15.6023C18.617 15.6023 20.8687 15.9838 24.5848 18.5678C29.1 17.3045 33.8754 17.3045 38.3906 18.5678C42.1066 15.9838 44.3584 15.6023 45.3551 15.6023C45.562 15.595 45.769 15.6157 45.9703 15.6639C47.4715 19.5521 46.524 22.4314 46.241 23.1451C48.0006 25.1262 49.0711 27.6486 49.0711 30.7248C49.0711 41.5775 42.6234 43.9646 36.4834 44.666C37.4678 45.5396 38.3537 47.2623 38.3537 49.8955C38.3537 53.673 38.3168 56.7246 38.3168 57.6475C38.3168 58.3119 38.6982 59.0625 39.7195 59.0625C39.8849 59.0632 40.0498 59.0467 40.2117 59.0133C51.1752 55.2727 59.0625 44.6783 59.0625 32.2014C59.0625 16.599 46.7209 3.9375 31.5 3.9375Z" fill="#7094DA"/>
</svg>
