<svg width="689" height="103" viewBox="0 0 689 103" fill="none" xmlns="http://www.w3.org/2000/svg">
<path d="M434.8 55V26.9609H441.449C444.508 26.9609 446.778 27.4969 448.26 28.5688C449.753 29.6287 450.873 31.2367 451.62 33.3926C452.367 35.5485 452.74 38.1019 452.74 41.0527C452.74 43.847 452.343 46.304 451.548 48.4238C450.765 50.5316 449.651 52.1576 448.206 53.3018C446.76 54.4339 444.508 55 441.449 55H434.8ZM438.45 51.9106H440.889C443.358 51.9106 445.116 51.471 446.164 50.5918C447.224 49.7126 447.977 48.4961 448.422 46.9424C448.88 45.3766 449.109 43.2207 449.109 40.4746C449.109 37.7887 448.844 35.7231 448.314 34.2778C447.784 32.8325 447.025 31.7244 446.038 30.9536C445.05 30.1707 443.43 29.7793 441.178 29.7793H438.45V51.9106ZM473.066 53.6631C470.38 54.9398 467.838 55.5781 465.442 55.5781C463.623 55.5781 461.997 55.1265 460.564 54.2231C459.13 53.3198 457.98 52.0311 457.113 50.3569C456.258 48.6707 455.83 46.8701 455.83 44.9551C455.83 43.1123 456.24 41.3418 457.059 39.6436C457.878 37.9453 459.022 36.6265 460.491 35.687C461.961 34.7355 463.599 34.2598 465.406 34.2598C467.802 34.2598 469.723 35.1149 471.169 36.8252C472.626 38.5355 473.355 41.1732 473.355 44.7383V45.4609H459.444C459.444 46.8581 459.733 48.1348 460.311 49.291C460.901 50.4473 461.672 51.3145 462.623 51.8926C463.575 52.4707 464.659 52.7598 465.875 52.7598C468.043 52.7598 470.44 52.0371 473.066 50.5918V53.6631ZM459.642 42.9497H469.705V42.4619C469.705 40.8118 469.302 39.499 468.495 38.5234C467.688 37.5479 466.61 37.0601 465.261 37.0601C463.9 37.0601 462.72 37.5599 461.72 38.5596C460.732 39.5472 460.04 41.0106 459.642 42.9497ZM484.322 55L475.56 34.8198H479.245L486.165 50.7905L493.228 34.8198H496.589L487.754 55H484.322ZM516.029 53.6631C513.343 54.9398 510.802 55.5781 508.405 55.5781C506.586 55.5781 504.96 55.1265 503.527 54.2231C502.094 53.3198 500.944 52.0311 500.076 50.3569C499.221 48.6707 498.794 46.8701 498.794 44.9551C498.794 43.1123 499.203 41.3418 500.022 39.6436C500.841 37.9453 501.985 36.6265 503.455 35.687C504.924 34.7355 506.562 34.2598 508.369 34.2598C510.766 34.2598 512.687 35.1149 514.132 36.8252C515.589 38.5355 516.318 41.1732 516.318 44.7383V45.4609H502.407C502.407 46.8581 502.696 48.1348 503.274 49.291C503.864 50.4473 504.635 51.3145 505.587 51.8926C506.538 52.4707 507.622 52.7598 508.839 52.7598C511.007 52.7598 513.403 52.0371 516.029 50.5918V53.6631ZM502.606 42.9497H512.669V42.4619C512.669 40.8118 512.265 39.499 511.458 38.5234C510.651 37.5479 509.573 37.0601 508.224 37.0601C506.863 37.0601 505.683 37.5599 504.683 38.5596C503.696 39.5472 503.003 41.0106 502.606 42.9497ZM526.147 55V28.6592H520.113V25.8408H529.507V52.1997H535.812V55H526.147ZM550.519 55.5601C547.629 55.5601 545.316 54.5544 543.582 52.543C541.847 50.5195 540.98 47.9722 540.98 44.9009C540.98 41.8296 541.847 39.2882 543.582 37.2769C545.316 35.2655 547.629 34.2598 550.519 34.2598C553.398 34.2598 555.704 35.2655 557.439 37.2769C559.173 39.2882 560.04 41.8296 560.04 44.9009C560.04 47.9722 559.173 50.5195 557.439 52.543C555.704 54.5544 553.398 55.5601 550.519 55.5601ZM550.519 52.7598C552.314 52.7598 553.741 52.0612 554.801 50.6641C555.861 49.2669 556.391 47.3459 556.391 44.9009C556.391 42.4679 555.861 40.5529 554.801 39.1558C553.741 37.7586 552.314 37.0601 550.519 37.0601C548.713 37.0601 547.279 37.7586 546.219 39.1558C545.16 40.5529 544.63 42.4679 544.63 44.9009C544.63 47.3459 545.16 49.2669 546.219 50.6641C547.279 52.0612 548.713 52.7598 550.519 52.7598ZM566.798 39.3545C567.834 37.6683 569.068 36.3976 570.501 35.5425C571.935 34.6873 573.254 34.2598 574.458 34.2598C576.144 34.2598 577.662 34.9884 579.011 36.4458C580.36 37.9032 581.034 40.1133 581.034 43.0762C581.034 45.4128 580.582 47.5024 579.679 49.3452C578.788 51.1759 577.595 52.6273 576.102 53.6992C574.609 54.7591 572.76 55.2891 570.556 55.2891C569.929 55.2891 568.966 55.2228 567.665 55.0903C567.472 55.0662 567.183 55.0361 566.798 55V62.8408H563.437V34.8198H566.798V39.3545ZM566.798 43.3472V52.001C568.014 52.3141 569.134 52.4707 570.158 52.4707C572.194 52.4707 573.904 51.6758 575.289 50.0859C576.686 48.484 577.385 46.298 577.385 43.5278C577.385 41.5164 577.005 40.0049 576.247 38.9932C575.488 37.9814 574.627 37.4756 573.663 37.4756C572.615 37.4756 571.459 38.0055 570.194 39.0654C568.942 40.1253 567.81 41.5526 566.798 43.3472ZM601.956 53.6631C599.27 54.9398 596.729 55.5781 594.332 55.5781C592.513 55.5781 590.887 55.1265 589.454 54.2231C588.021 53.3198 586.87 52.0311 586.003 50.3569C585.148 48.6707 584.72 46.8701 584.72 44.9551C584.72 43.1123 585.13 41.3418 585.949 39.6436C586.768 37.9453 587.912 36.6265 589.382 35.687C590.851 34.7355 592.489 34.2598 594.296 34.2598C596.692 34.2598 598.613 35.1149 600.059 36.8252C601.516 38.5355 602.245 41.1732 602.245 44.7383V45.4609H588.334C588.334 46.8581 588.623 48.1348 589.201 49.291C589.791 50.4473 590.562 51.3145 591.513 51.8926C592.465 52.4707 593.549 52.7598 594.765 52.7598C596.933 52.7598 599.33 52.0371 601.956 50.5918V53.6631ZM588.532 42.9497H598.595V42.4619C598.595 40.8118 598.192 39.499 597.385 38.5234C596.578 37.5479 595.5 37.0601 594.151 37.0601C592.79 37.0601 591.61 37.5599 590.61 38.5596C589.622 39.5472 588.93 41.0106 588.532 42.9497ZM608.37 55V34.8198H611.73V39.228C612.778 37.5659 613.977 36.3254 615.326 35.5063C616.687 34.6753 618.198 34.2598 619.86 34.2598C621.077 34.2598 622.293 34.4465 623.51 34.8198V42.1006H620.276V37.4937C619.71 37.3973 619.264 37.3491 618.939 37.3491C617.686 37.3491 616.458 37.8429 615.253 38.8306C614.049 39.8182 612.875 41.2996 611.73 43.2749V55H608.37Z" fill="white"/>
<path d="M427.822 7.91752H419.658V16.0825H427.822V7.91752ZM388.142 47.5982L396.307 47.5982L396.307 39.4333L388.142 39.4333L388.142 47.5982ZM423.033 11.2929L391.517 42.8086L392.931 44.2229L424.447 12.7071L423.033 11.2929Z" fill="white"/>
<path d="M387.918 39.9175V48.0825H396.082V39.9175H387.918ZM427.315 79.3154L427.315 71.1504L419.15 71.1504L419.15 79.3154L427.315 79.3154ZM391.293 44.7071L422.526 75.94L423.94 74.5258L392.707 43.2929L391.293 44.7071Z" fill="white"/>
<path d="M648.918 7.91752H657.082V16.0825H648.918V7.91752ZM688.598 47.5982L680.433 47.5982L680.433 39.4333L688.598 39.4333L688.598 47.5982ZM653.707 11.2929L685.223 42.8086L683.809 44.2229L652.293 12.7071L653.707 11.2929Z" fill="white"/>
<path d="M688.822 39.9175V48.0825H680.658V39.9175H688.822ZM649.425 79.3154L649.425 71.1504L657.59 71.1504L657.59 79.3154L649.425 79.3154ZM685.447 44.7071L654.214 75.94L652.8 74.5258L684.033 43.2929L685.447 44.7071Z" fill="white"/>
<path d="M646.36 0.287341L642.66 2.01267L644.385 5.71266L648.085 3.98733L646.36 0.287341ZM629.64 46.2249L633.34 44.4996L631.615 40.7996L627.915 42.5249L629.64 46.2249ZM644.903 2.82899L630.158 43.3412L631.097 43.6832L645.843 3.17101L644.903 2.82899Z" fill="white"/>
<path d="M631.733 40.4758L628.033 42.2011L629.758 45.9011L633.458 44.1758L631.733 40.4758ZM615.013 86.4134L618.713 84.688L616.987 80.988L613.287 82.7134L615.013 86.4134ZM630.275 43.0175L615.53 83.5297L616.47 83.8717L631.215 43.3595L630.275 43.0175Z" fill="white"/>
<path d="M28.736 28.69H37.97C40.934 28.69 43.5307 29.2853 45.76 30.476C47.9893 31.6667 49.712 33.3387 50.928 35.492C52.144 37.62 52.752 40.0647 52.752 42.826C52.752 45.562 52.144 48.0067 50.928 50.16C49.712 52.3133 47.9767 53.998 45.722 55.214C43.4927 56.4047 40.9087 57 37.97 57H28.736V28.69ZM38.084 52.44C39.984 52.44 41.6433 52.0473 43.062 51.262C44.506 50.4767 45.608 49.362 46.368 47.918C47.1533 46.4487 47.546 44.7513 47.546 42.826C47.546 40.9007 47.1533 39.216 46.368 37.772C45.608 36.328 44.506 35.2133 43.062 34.428C41.6433 33.6427 39.984 33.25 38.084 33.25H33.904V52.44H38.084ZM66.2509 57.456C64.1736 57.456 62.3242 56.9747 60.7029 56.012C59.1069 55.0493 57.8529 53.7447 56.9409 52.098C56.0542 50.4513 55.6109 48.6273 55.6109 46.626C55.6109 44.5993 56.0542 42.7753 56.9409 41.154C57.8529 39.5073 59.0816 38.2153 60.6269 37.278C62.1976 36.3407 63.9456 35.872 65.8709 35.872C67.9482 35.872 69.7469 36.328 71.2669 37.24C72.7869 38.1267 73.9396 39.3427 74.7249 40.888C75.5356 42.4333 75.9409 44.1307 75.9409 45.98C75.9409 46.8413 75.8522 47.538 75.6749 48.07H60.7789C60.9309 49.59 61.5136 50.806 62.5269 51.718C63.5402 52.63 64.7942 53.086 66.2889 53.086C67.4036 53.086 68.3536 52.858 69.1389 52.402C69.9496 51.9207 70.5956 51.262 71.0769 50.426L75.1049 52.402C74.4716 53.922 73.3569 55.1507 71.7609 56.088C70.1649 57 68.3282 57.456 66.2509 57.456ZM70.6209 44.27C70.4942 43.0033 70.0002 41.9773 69.1389 41.192C68.2776 40.3813 67.1882 39.976 65.8709 39.976C64.6042 39.976 63.5276 40.356 62.6409 41.116C61.7542 41.8507 61.1716 42.902 60.8929 44.27H70.6209ZM87.4665 57.418C85.3892 57.418 83.5525 56.924 81.9565 55.936C80.3858 54.948 79.2712 53.5927 78.6125 51.87L82.2985 49.97C82.8558 51.0847 83.5905 51.9587 84.5025 52.592C85.4398 53.2 86.4658 53.504 87.5805 53.504C88.5432 53.504 89.2905 53.314 89.8225 52.934C90.3798 52.5287 90.6585 51.984 90.6585 51.3C90.6585 50.7173 90.4305 50.236 89.9745 49.856C89.5185 49.4507 88.9232 49.1847 88.1885 49.058L84.8065 48.488C83.0585 48.032 81.7032 47.2593 80.7405 46.17C79.8032 45.0553 79.3345 43.7507 79.3345 42.256C79.3345 41.0147 79.6638 39.9127 80.3225 38.95C80.9812 37.962 81.8932 37.202 83.0585 36.67C84.2492 36.138 85.5918 35.872 87.0865 35.872C88.9865 35.872 90.6585 36.328 92.1025 37.24C93.5465 38.1267 94.5978 39.368 95.2565 40.964L91.5705 42.864C91.1652 41.9773 90.5445 41.268 89.7085 40.736C88.8725 40.204 87.9478 39.938 86.9345 39.938C86.0985 39.938 85.4272 40.128 84.9205 40.508C84.4392 40.888 84.1985 41.382 84.1985 41.99C84.1985 43.1047 85.0345 43.852 86.7065 44.232L90.0125 44.84C91.7605 45.3213 93.1158 46.1067 94.0785 47.196C95.0412 48.2853 95.5225 49.5773 95.5225 51.072C95.5225 52.3133 95.1805 53.4153 94.4965 54.378C93.8378 55.3407 92.9005 56.088 91.6845 56.62C90.4685 57.152 89.0625 57.418 87.4665 57.418ZM99.234 36.328H104.212V57H99.234V36.328ZM98.854 30.628C98.854 29.716 99.1073 29.0067 99.614 28.5C100.121 27.9933 100.817 27.74 101.704 27.74C102.616 27.74 103.325 27.9933 103.832 28.5C104.339 29.0067 104.592 29.716 104.592 30.628C104.592 31.5147 104.339 32.2113 103.832 32.718C103.351 33.2247 102.641 33.478 101.704 33.478C100.817 33.478 100.121 33.2247 99.614 32.718C99.1073 32.2113 98.854 31.5147 98.854 30.628ZM118.84 65.36C116.51 65.36 114.458 64.8027 112.684 63.688C110.936 62.5987 109.733 61.142 109.074 59.318L113.71 57.57C114.014 58.558 114.622 59.3433 115.534 59.926C116.446 60.5087 117.548 60.8 118.84 60.8C120.36 60.8 121.589 60.3693 122.526 59.508C123.489 58.6467 123.97 57.4687 123.97 55.974V53.732C122.501 55.3533 120.512 56.164 118.004 56.164C116.104 56.164 114.382 55.7207 112.836 54.834C111.316 53.9473 110.126 52.7313 109.264 51.186C108.403 49.6407 107.972 47.9053 107.972 45.98C107.972 44.0547 108.39 42.332 109.226 40.812C110.088 39.2667 111.278 38.0633 112.798 37.202C114.318 36.3153 116.016 35.872 117.89 35.872C120.55 35.872 122.666 36.8093 124.236 38.684V36.328H128.948V55.974C128.948 57.7727 128.518 59.3813 127.656 60.8C126.795 62.244 125.592 63.3587 124.046 64.144C122.526 64.9547 120.791 65.36 118.84 65.36ZM113.14 46.018C113.14 47.614 113.647 48.944 114.66 50.008C115.699 51.0467 117.016 51.566 118.612 51.566C120.183 51.566 121.462 51.0467 122.45 50.008C123.464 48.9693 123.97 47.6393 123.97 46.018C123.97 44.3967 123.464 43.0667 122.45 42.028C121.437 40.964 120.158 40.432 118.612 40.432C117.042 40.432 115.737 40.964 114.698 42.028C113.66 43.092 113.14 44.422 113.14 46.018ZM133.597 36.328H138.271V38.874C138.803 37.9113 139.576 37.1767 140.589 36.67C141.628 36.138 142.806 35.872 144.123 35.872C145.618 35.872 146.961 36.2013 148.151 36.86C149.342 37.5187 150.267 38.4433 150.925 39.634C151.584 40.8247 151.913 42.18 151.913 43.7V57H146.935V44.878C146.935 43.5353 146.543 42.4587 145.757 41.648C144.997 40.8373 143.997 40.432 142.755 40.432C141.514 40.432 140.501 40.8373 139.715 41.648C138.955 42.4587 138.575 43.5353 138.575 44.878V57H133.597V36.328ZM165.927 57.456C163.849 57.456 162 56.9747 160.379 56.012C158.783 55.0493 157.529 53.7447 156.617 52.098C155.73 50.4513 155.287 48.6273 155.287 46.626C155.287 44.5993 155.73 42.7753 156.617 41.154C157.529 39.5073 158.757 38.2153 160.303 37.278C161.873 36.3407 163.621 35.872 165.547 35.872C167.624 35.872 169.423 36.328 170.943 37.24C172.463 38.1267 173.615 39.3427 174.401 40.888C175.211 42.4333 175.617 44.1307 175.617 45.98C175.617 46.8413 175.528 47.538 175.351 48.07H160.455C160.607 49.59 161.189 50.806 162.203 51.718C163.216 52.63 164.47 53.086 165.965 53.086C167.079 53.086 168.029 52.858 168.815 52.402C169.625 51.9207 170.271 51.262 170.753 50.426L174.781 52.402C174.147 53.922 173.033 55.1507 171.437 56.088C169.841 57 168.004 57.456 165.927 57.456ZM170.297 44.27C170.17 43.0033 169.676 41.9773 168.815 41.192C167.953 40.3813 166.864 39.976 165.547 39.976C164.28 39.976 163.203 40.356 162.317 41.116C161.43 41.8507 160.847 42.902 160.569 44.27H170.297ZM179.39 36.328H184.064V39.216C184.571 38.1013 185.293 37.3033 186.23 36.822C187.168 36.3407 188.308 36.1 189.65 36.1H190.866V40.508H189.08C187.662 40.508 186.522 40.9513 185.66 41.838C184.799 42.7247 184.368 43.9407 184.368 45.486V57H179.39V36.328Z" fill="white"/>
<path d="M3 6.48507L0.113249 9.37183L3 12.2586L5.88675 9.37183L3 6.48507ZM3 45.832L5.88675 42.9452L3 40.0585L0.113249 42.9452L3 45.832ZM2.5 9.37183V42.9452H3.5V9.37183H2.5Z" fill="white"/>
<path d="M3 39.7898L0.113249 42.6765L3 45.5633L5.88675 42.6765L3 39.7898ZM3 79.1367L5.88675 76.2499L3 73.3632L0.113249 76.2499L3 79.1367ZM2.5 42.6765V76.2499H3.5V42.6765H2.5Z" fill="white"/>
<path d="M0.113249 9.37183L3 12.2586L5.88675 9.37183L3 6.48507L0.113249 9.37183ZM112.528 9.37183L109.641 6.48507L106.755 9.37183L109.641 12.2586L112.528 9.37183ZM3 9.87183L109.641 9.87183V8.87183L3 8.87183V9.87183Z" fill="white"/>
<path d="M106.472 9.37183L109.359 12.2586L112.245 9.37183L109.359 6.48507L106.472 9.37183ZM218.887 9.37183L216 6.48507L213.113 9.37183L216 12.2586L218.887 9.37183ZM109.359 9.87183L216 9.87183V8.87183L109.359 8.87183V9.87183Z" fill="white"/>
<path d="M215.717 6.48507L212.83 9.37183L215.717 12.2586L218.604 9.37183L215.717 6.48507ZM215.717 45.832L218.604 42.9452L215.717 40.0585L212.83 42.9452L215.717 45.832ZM215.217 9.37183V42.9452H216.217V9.37183H215.217Z" fill="white"/>
<path d="M215.717 39.7898L212.83 42.6765L215.717 45.5633L218.604 42.6765L215.717 39.7898ZM215.717 79.1367L218.604 76.2499L215.717 73.3632L212.83 76.2499L215.717 79.1367ZM215.217 42.6765V76.2499H216.217V42.6765H215.217Z" fill="white"/>
<path d="M0.113249 75.9814L3 78.8682L5.88675 75.9814L3 73.0947L0.113249 75.9814ZM112.528 75.9814L109.641 73.0947L106.755 75.9814L109.641 78.8682L112.528 75.9814ZM3 76.4814H109.641V75.4814H3V76.4814Z" fill="white"/>
<path d="M106.472 75.9814L109.359 78.8682L112.245 75.9814L109.359 73.0947L106.472 75.9814ZM218.887 75.9814L216 73.0947L213.113 75.9814L216 78.8682L218.887 75.9814ZM109.359 76.4814H216V75.4814H109.359V76.4814Z" fill="white"/>
<path d="M170 102.25V76.25L189.349 95.112H177.595L177.343 95.3133L170 102.25Z" fill="white"/>
<path d="M301.768 54.4048C299.861 54.4048 298.215 54.063 296.83 53.3793C295.444 52.6955 294.378 51.7689 293.631 50.5994C292.894 49.4209 292.525 48.1075 292.525 46.6591C292.525 45.5795 292.741 44.6214 293.173 43.7848C293.604 42.9482 294.207 42.179 294.981 41.4773C295.754 40.7666 296.654 40.0604 297.68 39.3587L303.037 35.8366C303.73 35.3958 304.238 34.9325 304.562 34.4467C304.886 33.9519 305.048 33.4167 305.048 32.8409C305.048 32.2921 304.827 31.7839 304.386 31.316C303.946 30.8482 303.32 30.6188 302.511 30.6278C301.971 30.6278 301.503 30.7493 301.107 30.9922C300.711 31.2261 300.401 31.5365 300.176 31.9233C299.96 32.3011 299.852 32.724 299.852 33.1918C299.852 33.7675 300.014 34.3523 300.338 34.946C300.662 35.5398 301.094 36.1695 301.634 36.8352C302.173 37.492 302.763 38.2027 303.401 38.9673L316.504 54H310.513L299.582 41.8281C298.863 41.0095 298.143 40.1548 297.423 39.2642C296.713 38.3646 296.119 37.411 295.642 36.4034C295.165 35.3868 294.927 34.2848 294.927 33.0973C294.927 31.7569 295.237 30.5514 295.858 29.4808C296.488 28.4103 297.369 27.5646 298.503 26.9439C299.636 26.3142 300.959 25.9993 302.47 25.9993C303.946 25.9993 305.219 26.3007 306.289 26.9034C307.369 27.4972 308.196 28.2888 308.772 29.2784C309.357 30.259 309.649 31.3385 309.649 32.517C309.649 33.8215 309.325 35.0045 308.678 36.0661C308.039 37.1186 307.139 38.0632 305.979 38.8999L300.338 42.9616C299.573 43.5194 299.007 44.0907 298.638 44.6754C298.278 45.2512 298.098 45.8045 298.098 46.3352C298.098 46.992 298.26 47.5812 298.584 48.103C298.908 48.6248 299.366 49.0386 299.96 49.3445C300.554 49.6413 301.251 49.7898 302.052 49.7898C303.023 49.7898 303.982 49.5694 304.926 49.1286C305.88 48.6787 306.743 48.0445 307.517 47.2259C308.3 46.3982 308.925 45.4176 309.393 44.2841C309.861 43.1506 310.094 41.8956 310.094 40.5192H314.858C314.858 42.2105 314.674 43.7353 314.305 45.0938C313.936 46.4432 313.423 47.6217 312.766 48.6293C312.11 49.6278 311.358 50.4465 310.513 51.0852C310.243 51.2562 309.982 51.4181 309.73 51.571C309.478 51.724 309.217 51.8859 308.947 52.0568C307.922 52.8845 306.775 53.4827 305.506 53.8516C304.247 54.2204 303.001 54.4048 301.768 54.4048Z" fill="white"/>
</svg>
