<svg width="53" height="53" viewBox="0 0 53 53" fill="none" xmlns="http://www.w3.org/2000/svg">
<path d="M26.5 20.9785C25.408 20.9789 24.3407 21.3031 23.433 21.91C22.5252 22.517 21.8178 23.3795 21.4003 24.3884C20.9827 25.3974 20.8736 26.5075 21.0869 27.5785C21.3002 28.6494 21.8262 29.633 22.5985 30.405C23.3708 31.177 24.3546 31.7027 25.4256 31.9156C26.4966 32.1285 27.6067 32.019 28.6155 31.601C29.6243 31.1831 30.4866 30.4753 31.0932 29.5674C31.6998 28.6594 32.0236 27.592 32.0236 26.5C32.0225 25.0356 31.4401 23.6315 30.4044 22.5962C29.3687 21.5609 27.9644 20.979 26.5 20.9785ZM39.4094 16.7343C39.1283 16.022 38.7039 15.375 38.1624 14.8335C37.6209 14.292 36.9739 13.8675 36.2615 13.5864C34.0877 12.7283 28.9119 12.9208 26.5 12.9208C24.0881 12.9208 18.9175 12.721 16.7374 13.5864C16.0251 13.8675 15.3781 14.292 14.8366 14.8335C14.2951 15.375 13.8706 16.022 13.5895 16.7343C12.7324 18.9082 12.9239 24.0891 12.9239 26.499C12.9239 28.9088 12.7324 34.0836 13.5937 36.2646C13.8748 36.977 14.2992 37.624 14.8407 38.1655C15.3822 38.707 16.0292 39.1314 16.7416 39.4125C18.9154 40.2707 24.0912 40.0781 26.5041 40.0781C28.9171 40.0781 34.0856 40.2779 36.2657 39.4125C36.978 39.1314 37.625 38.707 38.1665 38.1655C38.708 37.624 39.1325 36.977 39.4136 36.2646C40.2779 34.0908 40.0792 28.9098 40.0792 26.5C40.0792 24.0902 40.2779 18.9164 39.4136 16.7354L39.4094 16.7343ZM26.5 34.9883C24.8212 34.9883 23.1801 34.4905 21.7842 33.5577C20.3883 32.625 19.3003 31.2994 18.6579 29.7483C18.0154 28.1973 17.8473 26.4906 18.1748 24.844C18.5023 23.1975 19.3108 21.685 20.4979 20.4979C21.685 19.3108 23.1975 18.5023 24.844 18.1748C26.4906 17.8473 28.1973 18.0154 29.7483 18.6579C31.2994 19.3003 32.625 20.3883 33.5577 21.7842C34.4905 23.1801 34.9883 24.8212 34.9883 26.5C34.9896 27.6151 34.771 28.7195 34.3449 29.7499C33.9188 30.7804 33.2936 31.7167 32.5052 32.5052C31.7167 33.2936 30.7804 33.9188 29.7499 34.3449C28.7195 34.771 27.6151 34.9896 26.5 34.9883ZM35.3382 19.6369C34.9463 19.6371 34.5631 19.5211 34.2371 19.3035C33.9112 19.0859 33.6571 18.7766 33.507 18.4145C33.3568 18.0525 33.3175 17.6541 33.3938 17.2697C33.4701 16.8853 33.6587 16.5322 33.9358 16.255C34.2128 15.9778 34.5659 15.789 34.9502 15.7125C35.3346 15.6359 35.733 15.6751 36.0951 15.8251C36.4572 15.975 36.7667 16.2289 36.9844 16.5548C37.2022 16.8806 37.3184 17.2637 37.3184 17.6556C37.3195 17.9159 37.2692 18.1738 37.1704 18.4146C37.0716 18.6553 36.9262 18.8742 36.7426 19.0587C36.559 19.2431 36.3408 19.3895 36.1005 19.4895C35.8602 19.5894 35.6026 19.6409 35.3423 19.6411L35.3382 19.6369ZM44.7188 3.3125H8.28125C6.96346 3.3125 5.69963 3.83599 4.76781 4.76781C3.83599 5.69963 3.3125 6.96346 3.3125 8.28125L3.3125 44.7188C3.3125 46.0365 3.83599 47.3004 4.76781 48.2322C5.69963 49.164 6.96346 49.6875 8.28125 49.6875H44.7188C46.0365 49.6875 47.3004 49.164 48.2322 48.2322C49.164 47.3004 49.6875 46.0365 49.6875 44.7188V8.28125C49.6875 6.96346 49.164 5.69963 48.2322 4.76781C47.3004 3.83599 46.0365 3.3125 44.7188 3.3125ZM42.9466 33.332C42.813 35.9851 42.2075 38.336 40.2707 40.2676C38.3339 42.1992 35.9851 42.8172 33.3351 42.9435C30.6013 43.0977 22.4049 43.0977 19.6711 42.9435C17.018 42.8099 14.6754 42.2033 12.7355 40.2676C10.7956 38.3318 10.1859 35.98 10.0596 33.332C9.90541 30.5971 9.90541 22.3997 10.0596 19.668C10.1932 17.0149 10.7915 14.664 12.7355 12.7324C14.6796 10.8008 17.0283 10.1901 19.6711 10.0638C22.4049 9.90955 30.6013 9.90955 33.3351 10.0638C35.9882 10.1973 38.338 10.8039 40.2707 12.7397C42.2033 14.6754 42.8203 17.0273 42.9466 19.6804C43.1008 22.4049 43.1008 30.5951 42.9466 33.332Z" fill="#7094DA"/>
</svg>
