<svg width="43" height="51" viewBox="0 0 43 51" fill="none" xmlns="http://www.w3.org/2000/svg">
<path fill-rule="evenodd" clip-rule="evenodd" d="M0 4C0 1.79102 1.79083 0 4 0H39C41.2092 0 43 1.79102 43 4V33V41V51L31 45H4C1.79083 45 0 43.209 0 41V4ZM37.2306 31.1421C37.7043 31.8218 37.5374 32.7568 36.8577 33.2305C22.9454 42.9272 9.88947 37.2837 5.02728 33.1421C4.39667 32.6045 4.32092 31.6577 4.85815 31.0273C5.39532 30.3965 6.34204 30.3208 6.97272 30.8579C11.1105 34.3828 22.6545 39.4731 35.1423 30.7695C35.822 30.2959 36.7569 30.4629 37.2306 31.1421Z" fill="white"/>
</svg>
