<svg width="17" height="17" viewBox="0 0 17 17" fill="none" xmlns="http://www.w3.org/2000/svg">
<g clip-path="url(#clip0_140_320)">
<path fill-rule="evenodd" clip-rule="evenodd" d="M9.59914 0.765442C9.48587 0.765442 9.3807 0.789714 9.28361 0.822075C9.48992 0.959613 9.60318 1.14165 9.65982 1.34796C9.66388 1.37627 9.67196 1.3965 9.67601 1.42481C9.68006 1.44909 9.68409 1.47336 9.68409 1.49763C9.70028 1.85361 9.59105 1.89811 9.51419 2.10846C9.39688 2.37949 9.42924 2.67075 9.57082 2.90537C9.58296 2.93369 9.59914 2.96605 9.61937 2.99437C9.46565 1.97092 10.3192 1.8172 10.477 1.49763C10.4891 1.21851 10.2585 1.03243 10.0765 0.90298C9.90253 0.797804 9.74477 0.765442 9.59914 0.765442ZM10.8855 0.99602C10.8693 1.08906 10.8815 1.06479 10.8774 1.11333C10.8734 1.14569 10.8734 1.18615 10.8694 1.21851C10.8613 1.25087 10.8532 1.28323 10.841 1.31559C10.833 1.34796 10.8208 1.38032 10.8087 1.41268C10.7925 1.44504 10.7804 1.47336 10.7642 1.50572C10.752 1.52191 10.744 1.53808 10.7318 1.55426C10.7237 1.5664 10.7156 1.57853 10.7075 1.59067C10.6873 1.61899 10.6671 1.6473 10.6469 1.67157C10.6226 1.69585 10.6024 1.72416 10.5741 1.74439C10.5741 1.74844 10.5741 1.74844 10.5741 1.74844C10.5498 1.76867 10.5255 1.79294 10.4972 1.81316C10.4122 1.87789 10.3152 1.92643 10.2262 1.98711C10.1978 2.00733 10.1695 2.02352 10.1453 2.04779C10.1169 2.06801 10.0927 2.08824 10.0684 2.11251C10.0401 2.13678 10.0199 2.16105 9.99558 2.18937C9.97536 2.21364 9.95109 2.24196 9.93491 2.27028C9.91468 2.29859 9.89446 2.32691 9.87827 2.35522C9.86209 2.38759 9.84996 2.4159 9.83378 2.44826C9.82164 2.48063 9.8095 2.50894 9.80141 2.5413C9.78928 2.57771 9.78119 2.61007 9.7731 2.64244C9.76905 2.65862 9.76905 2.67884 9.76501 2.69502C9.76096 2.71121 9.76096 2.72739 9.75693 2.74357C9.75693 2.77593 9.75288 2.81234 9.75288 2.8447C9.75288 2.86897 9.75288 2.89324 9.75693 2.91751C9.75693 2.94987 9.76098 2.98224 9.76906 3.01864C9.77312 3.051 9.7812 3.08337 9.78929 3.11573C9.80143 3.14809 9.80952 3.18045 9.82165 3.21281C9.82974 3.23304 9.84188 3.25327 9.84997 3.26945L8.91957 2.90942C8.7618 2.86492 8.60808 2.82447 8.45032 2.78806C8.36537 2.76784 8.28042 2.74761 8.19547 2.72739C7.95275 2.67884 7.706 2.64244 7.45924 2.61817C7.45115 2.61817 7.4471 2.61412 7.43901 2.61412C7.1963 2.58984 6.95763 2.57771 6.71492 2.57771C6.53692 2.57771 6.35893 2.58579 6.18499 2.59793C5.93823 2.61412 5.69147 2.64648 5.44471 2.68693C5.38403 2.69501 5.32335 2.70716 5.26267 2.71929C5.13727 2.74356 5.01592 2.77188 4.8986 2.8002C4.83792 2.81638 4.77725 2.83256 4.71657 2.84874C4.65589 2.87301 4.59926 2.90133 4.54262 2.9256C4.49812 2.94582 4.45363 2.96605 4.40913 2.98628C4.40105 2.99033 4.39294 2.99033 4.3889 2.99436C4.34845 3.01459 4.31204 3.03077 4.27564 3.05099C4.2635 3.05505 4.25541 3.05908 4.24732 3.06313C4.20282 3.08336 4.15833 3.10763 4.12192 3.12785C4.0936 3.13999 4.06529 3.15617 4.04101 3.16831C4.02888 3.17639 4.0127 3.18449 4.00461 3.18853C3.9682 3.20876 3.93179 3.22898 3.89943 3.24921C3.86302 3.26944 3.83066 3.28966 3.80234 3.30989C3.77403 3.33012 3.74571 3.3463 3.72144 3.36652C3.71739 3.37057 3.71336 3.37057 3.7093 3.37461C3.68503 3.39079 3.65672 3.41101 3.63244 3.43124C3.63244 3.43124 3.62839 3.43529 3.62436 3.43932C3.60414 3.45551 3.58391 3.47169 3.56368 3.48787C3.5556 3.49192 3.54749 3.5 3.53941 3.50405C3.51918 3.52024 3.49896 3.54046 3.47873 3.55664C3.47468 3.56473 3.4666 3.56878 3.46255 3.57283C3.43827 3.5971 3.414 3.61733 3.38973 3.6416C3.38568 3.6416 3.38568 3.64565 3.38165 3.64968C3.35738 3.66991 3.3331 3.69418 3.30883 3.71845C3.30478 3.7225 3.30478 3.72654 3.30075 3.72654C3.28052 3.74676 3.2603 3.76699 3.24007 3.79126C3.23198 3.79934 3.21984 3.80745 3.21175 3.81553C3.19153 3.8398 3.16726 3.86407 3.14298 3.88835C3.13893 3.89643 3.13085 3.90048 3.1268 3.90857C3.09444 3.94093 3.06612 3.9733 3.03376 4.00566C3.0297 4.00971 3.02567 4.01374 3.02162 4.01779C2.9569 4.08656 2.88813 4.15533 2.81531 4.21601C2.7425 4.28073 2.66564 4.34141 2.58878 4.394C2.50788 4.45063 2.43102 4.49918 2.34607 4.54772C2.26516 4.59221 2.18021 4.63267 2.09122 4.66908C2.00627 4.70548 1.91727 4.73785 1.82828 4.76616C1.65838 4.80257 1.48443 4.87134 1.33476 4.88347C1.3024 4.88347 1.26599 4.89156 1.23363 4.89561C1.19722 4.90369 1.16486 4.9118 1.1325 4.91988C1.10014 4.93201 1.06777 4.94415 1.03541 4.95629C1.00305 4.96842 0.970687 4.9846 0.938326 5.00078C0.910008 5.02101 0.877647 5.03719 0.849329 5.05742C0.821014 5.07764 0.792696 5.10191 0.768425 5.12619C0.740109 5.14641 0.711792 5.17473 0.68752 5.199C0.663249 5.22732 0.638977 5.25159 0.618751 5.2799C0.598526 5.31227 0.574254 5.34058 0.558072 5.37295C0.537847 5.40126 0.517621 5.43362 0.501439 5.46598C0.485252 5.50239 0.469078 5.53475 0.456942 5.57116C0.444806 5.60352 0.43267 5.63993 0.420535 5.67634C0.41245 5.7087 0.404347 5.74106 0.400309 5.77342C0.400309 5.77748 0.396258 5.78151 0.396258 5.78556C0.388173 5.82197 0.388173 5.87051 0.384122 5.89478C0.38007 5.9231 0.376038 5.94737 0.376038 5.97569C0.376038 5.99187 0.376038 6.01209 0.380089 6.02827C0.384141 6.05659 0.388173 6.08086 0.396276 6.10514C0.404361 6.1294 0.412464 6.15368 0.424592 6.17795C0.424592 6.182 0.424592 6.182 0.424592 6.182C0.436728 6.20627 0.452909 6.23054 0.469089 6.25481C0.485277 6.27909 0.501453 6.30336 0.521678 6.32763C0.541904 6.34786 0.566176 6.37213 0.590447 6.39235C0.614719 6.41662 0.63899 6.43685 0.667306 6.45707C0.764392 6.54203 0.788664 6.57034 0.914066 6.63507C0.934291 6.6472 0.954519 6.65529 0.978791 6.66743C0.982843 6.66743 0.986875 6.67148 0.990926 6.67148C0.990926 6.67956 0.990926 6.68362 0.994979 6.69171C0.99903 6.72407 1.00711 6.75643 1.0152 6.78879C1.02329 6.8252 1.03543 6.85756 1.04757 6.88588C1.0597 6.91015 1.06779 6.93442 1.07993 6.95869C1.08398 6.96678 1.08801 6.97488 1.09206 6.97892C1.10825 7.01128 1.12443 7.0396 1.14061 7.06791C1.16083 7.09623 1.18106 7.12455 1.20129 7.15286C1.22151 7.17713 1.24578 7.20545 1.27005 7.22972C1.29433 7.25399 1.3186 7.27422 1.34691 7.29849C1.34691 7.29849 1.35097 7.30255 1.355 7.30255C1.37927 7.32277 1.40354 7.343 1.42781 7.35918C1.45613 7.37941 1.48445 7.39559 1.51681 7.41177C1.54513 7.42796 1.57749 7.44413 1.60985 7.45627C1.63412 7.4684 1.66244 7.47649 1.69075 7.48458C1.69481 7.48864 1.69884 7.48864 1.70694 7.49267C1.72313 7.49672 1.74335 7.50075 1.75953 7.5048C1.74739 7.72325 1.74334 7.92955 1.77572 8.00237C1.81212 8.08327 1.99011 7.83651 2.1681 7.55335C2.14383 7.83247 2.12765 8.16013 2.1681 8.25722C2.2126 8.35835 2.45531 8.04282 2.66567 7.69493C5.53374 7.03151 8.151 9.01368 8.42608 11.813C8.37349 11.3761 7.83548 11.1334 7.58872 11.1941C7.46736 11.4934 7.26105 11.8777 6.92934 12.1164C6.95766 11.8494 6.94553 11.5743 6.88889 11.3073C6.7999 11.6795 6.62595 12.0274 6.38728 12.3267C6.00298 12.355 5.61869 12.169 5.41642 11.8898C5.40024 11.8777 5.3962 11.8534 5.38406 11.8372C5.37193 11.8089 5.35979 11.7806 5.3517 11.7523C5.33956 11.724 5.33147 11.6957 5.32743 11.6673C5.32338 11.639 5.32338 11.6107 5.32338 11.5784C5.32338 11.5581 5.32338 11.5379 5.32338 11.5177C5.32743 11.4894 5.33551 11.461 5.3436 11.4327C5.35169 11.4044 5.35979 11.3761 5.37192 11.3478C5.38811 11.3195 5.40024 11.2911 5.42046 11.2628C5.48923 11.0687 5.48923 10.9109 5.36383 10.8179C5.33956 10.8017 5.31529 10.7895 5.28697 10.7774C5.27078 10.7733 5.25056 10.7653 5.23438 10.7612C5.22225 10.7572 5.21416 10.7531 5.20202 10.7491C5.1737 10.741 5.14539 10.7329 5.11707 10.7288C5.08875 10.7208 5.06044 10.7167 5.03212 10.7167C5.0038 10.7127 4.97144 10.7086 4.94313 10.7086C4.9229 10.7086 4.90267 10.7127 4.88245 10.7127C4.85009 10.7127 4.82177 10.7167 4.79345 10.7248C4.76513 10.7289 4.73682 10.7329 4.7085 10.741C4.68019 10.7491 4.65187 10.7572 4.62355 10.7693C4.59524 10.7815 4.57096 10.7936 4.54265 10.8057C4.51838 10.8179 4.4941 10.834 4.46579 10.8462C3.52325 11.4611 4.08554 12.9012 4.72873 13.3178C4.48601 13.3623 4.23926 13.4149 4.17049 13.4675C4.16643 13.4715 4.1624 13.4756 4.1624 13.4756C4.33635 13.5807 4.51838 13.6697 4.70851 13.7466C4.9674 13.8316 5.24248 13.9084 5.36384 13.9408V13.9448C5.69959 14.0136 6.03939 14.0379 6.38324 14.0176C8.17527 13.8922 9.64369 12.529 9.91068 10.7329C9.91877 10.7693 9.92687 10.8017 9.93495 10.8381C9.94709 10.9109 9.96327 10.9878 9.97136 11.0646C9.97136 11.0646 9.97136 11.0646 9.97136 11.0687C9.97944 11.1051 9.98349 11.1415 9.98754 11.1738C9.98754 11.1819 9.98754 11.186 9.98754 11.19C9.9916 11.2264 9.99563 11.2629 9.99563 11.2952C9.99968 11.3397 10.0037 11.3842 10.0037 11.4287C10.0037 11.4489 10.0037 11.4692 10.0037 11.4934C10.0037 11.5137 10.0078 11.5379 10.0078 11.5582C10.0078 11.5824 10.0037 11.6067 10.0037 11.631C10.0037 11.6512 10.0037 11.6714 10.0037 11.6876C10.0037 11.7159 9.99966 11.7402 9.99966 11.7685C9.99966 11.7847 9.99966 11.8009 9.99561 11.8211C9.99561 11.8494 9.99156 11.8777 9.99156 11.9101C9.9875 11.9222 9.9875 11.9344 9.9875 11.9465C9.98345 11.9789 9.97942 12.0072 9.97536 12.0395C9.97536 12.0517 9.97536 12.0638 9.97131 12.0759C9.96726 12.1164 9.95918 12.1528 9.95513 12.1933V12.1973V12.2014C9.94704 12.2378 9.93894 12.2782 9.93085 12.3146C9.93085 12.3187 9.93085 12.3227 9.93085 12.3268C9.92277 12.3632 9.91467 12.3996 9.90658 12.436C9.90658 12.44 9.90253 12.4481 9.90253 12.4522C9.89445 12.4886 9.88635 12.525 9.87422 12.5614C9.87422 12.5654 9.87422 12.5695 9.87422 12.5735C9.86208 12.614 9.84995 12.6504 9.84186 12.6868C9.83781 12.6908 9.83781 12.6949 9.83781 12.6949C9.82567 12.7353 9.81353 12.7758 9.8014 12.8162C9.78521 12.8567 9.77308 12.8931 9.7569 12.9335C9.74072 12.974 9.72859 13.0145 9.7124 13.0509C9.69622 13.0913 9.68004 13.1277 9.66386 13.1682H9.6598C9.64362 13.2046 9.62744 13.245 9.60721 13.2814C9.60316 13.2936 9.59913 13.3017 9.59508 13.3098C9.59103 13.3138 9.59103 13.3178 9.587 13.3219C9.32406 13.8518 8.93571 14.317 8.45029 14.6811C8.41792 14.7013 8.38556 14.7256 8.3532 14.7499C8.34512 14.7579 8.33297 14.762 8.32488 14.7701C8.29657 14.7903 8.26825 14.8105 8.23589 14.8308L8.24802 14.855H8.25207C8.30871 14.847 8.36534 14.8388 8.42197 14.8308H8.42603C8.5312 14.8146 8.63638 14.7944 8.74155 14.7741C8.76987 14.7701 8.80223 14.762 8.83055 14.7539C8.85077 14.7498 8.86696 14.7458 8.88718 14.7418C8.9155 14.7377 8.94381 14.7296 8.97213 14.7256C8.9964 14.7175 9.02068 14.7134 9.04495 14.7054C9.44947 14.6083 9.84186 14.4748 10.2181 14.317C9.57487 15.1948 8.71324 15.9027 7.70597 16.3679C8.17118 16.3356 8.63638 16.2587 9.0854 16.1293C10.7156 15.6479 12.087 14.5516 12.9081 13.0751C12.7423 14.0096 12.3701 14.8995 11.82 15.6762C12.2124 15.4173 12.5724 15.118 12.9001 14.7782C13.8062 13.8316 14.4008 12.6302 14.6031 11.3397C14.7406 11.9789 14.7811 12.6382 14.7204 13.2895C17.6411 9.21597 14.9631 4.99275 13.8426 3.88031C13.8385 3.87222 13.8345 3.86817 13.8345 3.86008C13.8305 3.86413 13.8305 3.86413 13.8305 3.86817C13.8305 3.86412 13.8305 3.86412 13.8264 3.86008C13.8264 3.90863 13.8224 3.95717 13.8183 4.00571C13.8062 4.09875 13.794 4.18775 13.7779 4.27674C13.7576 4.36574 13.7334 4.45473 13.7091 4.54373C13.6808 4.62867 13.6484 4.71767 13.612 4.80262C13.5756 4.88352 13.5352 4.96847 13.4907 5.04938C13.4462 5.12624 13.3976 5.20714 13.345 5.27996C13.2924 5.35682 13.2358 5.42963 13.1792 5.4984C13.1185 5.57122 13.0538 5.63594 12.989 5.70066C12.9486 5.73707 12.9122 5.76943 12.8717 5.80179C12.8394 5.83011 12.8111 5.85438 12.7787 5.8827C12.7059 5.93933 12.6331 5.99192 12.5522 6.04046C12.4753 6.089 12.3944 6.13755 12.3135 6.178C12.2285 6.21845 12.1436 6.25486 12.0586 6.29127C11.9737 6.32363 11.8847 6.35194 11.7957 6.37622C11.7067 6.40049 11.6137 6.42071 11.5247 6.43689C11.4316 6.45308 11.3386 6.46117 11.2496 6.46926C11.1849 6.47331 11.1201 6.47734 11.0554 6.47734C10.9624 6.47734 10.8693 6.46926 10.7803 6.46116C10.6873 6.45307 10.5943 6.44093 10.5053 6.4207C10.4122 6.40451 10.3232 6.38025 10.2342 6.35193H10.2302C10.3192 6.34385 10.4082 6.33574 10.4972 6.31957C10.5902 6.30338 10.6792 6.28316 10.7682 6.25889C10.8572 6.23462 10.9462 6.2063 11.0311 6.17394C11.1201 6.14158 11.2051 6.10113 11.286 6.06067C11.3709 6.02022 11.4478 5.97573 11.5287 5.92718C11.6056 5.87459 11.6824 5.82201 11.7552 5.76537C11.8281 5.70874 11.8968 5.64806 11.9616 5.58334C12.0303 5.52266 12.091 5.45389 12.1517 5.38512C12.2124 5.31231 12.269 5.23949 12.3216 5.16668C12.3297 5.15454 12.3378 5.13836 12.3458 5.12623C12.3863 5.0615 12.4268 4.99678 12.4632 4.93205C12.5077 4.85115 12.5481 4.77024 12.5845 4.6853C12.6209 4.60035 12.6533 4.51539 12.6816 4.4264C12.7099 4.34145 12.7301 4.25246 12.7504 4.16346C12.7666 4.07042 12.7827 3.98142 12.7908 3.89243C12.7989 3.79939 12.807 3.70635 12.807 3.61735C12.807 3.55263 12.803 3.48791 12.7989 3.42318C12.7908 3.33014 12.7787 3.24115 12.7666 3.15215C12.7504 3.05911 12.7302 2.97012 12.7059 2.88112C12.6776 2.79617 12.6493 2.70718 12.6169 2.62223C12.5845 2.53728 12.5441 2.45233 12.5036 2.37142C12.4591 2.29052 12.4146 2.20961 12.3661 2.13275C12.3135 2.0559 12.2609 1.98308 12.2043 1.91027C12.1436 1.8415 12.0829 1.77273 12.0182 1.70396C11.9858 1.6716 11.9494 1.63519 11.913 1.60283C11.731 1.46124 11.5409 1.32775 11.3507 1.2064C11.3224 1.19021 11.2981 1.17808 11.2698 1.16594C11.1363 1.08099 11.0109 1.03647 10.8855 0.99602Z" fill="#E0234E"/>
</g>
<defs>
<clipPath id="clip0_140_320">
<rect width="16.5631" height="16" fill="white" transform="translate(0 0.5)"/>
</clipPath>
</defs>
</svg>
