<svg width="30" height="17" viewBox="0 0 30 17" fill="none" xmlns="http://www.w3.org/2000/svg">
<g clip-path="url(#clip0_140_272)">
<rect y="0.5" width="30" height="16" rx="3" fill="white"/>
<path d="M8.31506 4.71056H13.342V5.10819H8.77587V8.10088H13.0697V8.49851H8.77587V11.7842H13.3944V12.1818H8.31506V4.71056ZM13.7924 4.71056H14.3265L16.6933 7.99624L19.1126 4.71056L22.4031 0.536987L16.997 8.34156L19.7828 12.1818H19.2278L16.6933 8.68687L14.1484 12.1818H13.6038L16.4106 8.34156L13.7924 4.71056ZM19.9818 5.10819V4.71056H25.7104V5.10819H23.0713V12.1818H22.6105V5.10819H19.9818Z" fill="black"/>
<path d="M2.02612 4.71057H2.60213L10.5449 16.5391L7.26254 12.1818L2.50787 5.27562L2.48693 12.1818H2.02612V4.71057Z" fill="black"/>
<path d="M25.8752 11.6642C25.9705 11.6642 26.04 11.5916 26.04 11.4978C26.04 11.404 25.9705 11.3314 25.8752 11.3314C25.7811 11.3314 25.7104 11.404 25.7104 11.4978C25.7104 11.5916 25.7811 11.6642 25.8752 11.6642ZM26.328 11.2264C26.328 11.5034 26.5286 11.6843 26.8211 11.6843C27.1327 11.6843 27.321 11.4978 27.321 11.1739V10.0336H27.07V11.1728C27.07 11.3526 26.9792 11.4486 26.8189 11.4486C26.6754 11.4486 26.5779 11.3593 26.5746 11.2264H26.328ZM27.6494 11.2119C27.6673 11.5 27.9083 11.6843 28.267 11.6843C28.6503 11.6843 28.8901 11.4911 28.8901 11.1828C28.8901 10.9405 28.7534 10.8065 28.4216 10.7294L28.2434 10.6858C28.0327 10.6367 27.9475 10.5708 27.9475 10.4558C27.9475 10.3106 28.0798 10.2156 28.2782 10.2156C28.4665 10.2156 28.5965 10.3083 28.62 10.4569H28.8643C28.8498 10.1855 28.6099 9.99451 28.2815 9.99451C27.9285 9.99451 27.6931 10.1855 27.6931 10.4725C27.6931 10.7093 27.8265 10.85 28.119 10.9181L28.3275 10.9684C28.5415 11.0187 28.6357 11.0924 28.6357 11.2152C28.6357 11.3582 28.4877 11.4621 28.286 11.4621C28.0697 11.4621 27.9195 11.3649 27.8982 11.2119H27.6494Z" fill="black"/>
</g>
<defs>
<clipPath id="clip0_140_272">
<rect y="0.5" width="30" height="16" rx="3" fill="white"/>
</clipPath>
</defs>
</svg>
