<svg width="18" height="17" viewBox="0 0 18 17" fill="none" xmlns="http://www.w3.org/2000/svg">
<path d="M7.09924 16.5C6.88498 16.5 6.67218 16.4438 6.48433 16.3356L4.52702 15.1768C4.23468 15.0133 4.37733 14.9555 4.47375 14.9222C4.86354 14.7857 4.94264 14.7549 5.3587 14.5186C5.40243 14.4937 5.45967 14.5025 5.50443 14.5289L7.00811 15.4212C7.06241 15.4505 7.13945 15.4505 7.18979 15.4212L13.0527 12.037C13.107 12.0061 13.1423 11.943 13.1423 11.8785V5.11295C13.1423 5.04544 13.107 4.98527 13.0516 4.95152L7.19097 1.57023C7.13667 1.53794 7.06476 1.53794 7.01046 1.57023L1.15102 4.95152C1.09422 4.9838 1.05812 5.04691 1.05812 5.11148V11.877C1.05812 11.9416 1.09334 12.0032 1.14911 12.034L2.75464 12.9615C3.62638 13.3974 4.15911 12.8838 4.15911 12.3672V5.68971C4.15911 5.59431 4.23395 5.52094 4.32934 5.52094H5.07193C5.16439 5.52094 5.24071 5.59431 5.24071 5.68971V12.3701C5.24071 13.5324 4.60671 14.2002 3.50457 14.2002C3.16556 14.2002 2.89846 14.2002 2.15293 13.8333L0.614914 12.9469C0.234812 12.7267 0 12.3158 0 11.877V5.11148C0 4.67121 0.234812 4.26029 0.614914 4.04309L6.48374 0.657397C6.85504 0.447534 7.34814 0.447534 7.7165 0.657397L13.578 4.04456C13.9566 4.26323 14.1929 4.67268 14.1929 5.11295V11.8785C14.1929 12.3173 13.9566 12.7267 13.578 12.9469L7.7165 16.3326C7.52865 16.4412 7.31586 16.4969 7.09866 16.4969" fill="#689F63"/>
<path d="M8.91025 11.8379C6.34493 11.8379 5.80707 10.6604 5.80707 9.67268C5.80707 9.57875 5.88279 9.5039 5.97687 9.5039H6.73413C6.81779 9.5039 6.88823 9.56481 6.90144 9.64743C7.01591 10.4191 7.35639 10.8083 8.90761 10.8083C10.1433 10.8083 10.6687 10.5292 10.6687 9.87388C10.6687 9.49671 10.519 9.21641 8.59942 9.02856C6.9939 8.87006 6.00182 8.51637 6.00182 7.23225C6.00182 6.04938 6.99976 5.34495 8.67133 5.34495C10.5484 5.34495 11.4788 5.99655 11.5962 7.39661C11.6006 7.44504 11.583 7.49201 11.5507 7.52723C11.5184 7.56098 11.4729 7.58153 11.426 7.58153H10.6643C10.585 7.58153 10.5161 7.52576 10.4999 7.44945C10.3165 6.63788 9.87328 6.37812 8.6684 6.37812C7.3197 6.37812 7.16267 6.84774 7.16267 7.19996C7.16267 7.62702 7.34758 7.75177 9.16737 7.99245C10.9696 8.23166 11.8251 8.56921 11.8251 9.83572C11.8251 11.1125 10.7597 11.8448 8.90174 11.8448M16.043 4.66986H16.2396C16.401 4.66986 16.4319 4.55686 16.4319 4.49082C16.4319 4.31765 16.313 4.31765 16.2469 4.31765H16.0444L16.043 4.66986ZM15.8037 4.11512H16.2396C16.3893 4.11512 16.6828 4.11512 16.6828 4.44973C16.6828 4.68307 16.5331 4.7315 16.4436 4.76085C16.6182 4.77259 16.63 4.88706 16.6535 5.0485C16.6652 5.14976 16.6843 5.3244 16.7195 5.3831H16.4509C16.4436 5.3244 16.4025 5.00153 16.4025 4.98392C16.3849 4.91201 16.36 4.87679 16.2704 4.87679H16.0488V5.38457H15.8037V4.11512ZM15.2798 4.74618C15.2798 5.27157 15.7039 5.69716 16.2249 5.69716C16.7503 5.69716 17.1745 5.26276 17.1745 4.74618C17.1745 4.21932 16.7445 3.80106 16.2235 3.80106C15.7098 3.80106 15.2783 4.21345 15.2783 4.74471M17.3564 4.74911C17.3564 5.37136 16.8472 5.87914 16.2264 5.87914C15.61 5.87914 15.0964 5.37723 15.0964 4.74911C15.0964 4.10925 15.6218 3.61908 16.2264 3.61908C16.8354 3.61908 17.355 4.11072 17.355 4.74911" fill="#689F63"/>
</svg>
