<svg width="24" height="17" viewBox="0 0 24 17" fill="none" xmlns="http://www.w3.org/2000/svg">
<path d="M13.4642 16.5H22.386C22.6694 16.5 22.9478 16.4261 23.1932 16.2857C23.4386 16.1452 23.6424 15.9432 23.784 15.7C23.9256 15.4567 24.0001 15.1808 24 14.8999C23.9999 14.6191 23.9251 14.3432 23.7833 14.1001L17.7916 3.81436C17.65 3.57116 17.4463 3.3692 17.201 3.22878C16.9556 3.08836 16.6773 3.01444 16.394 3.01444C16.1106 3.01444 15.8323 3.08836 15.587 3.22878C15.3416 3.3692 15.1379 3.57116 14.9962 3.81436L13.4642 6.44612L10.4688 1.29981C10.3271 1.05663 10.1233 0.854692 9.87784 0.714304C9.63244 0.573908 9.35408 0.5 9.07068 0.5C8.78732 0.5 8.50896 0.573908 8.26352 0.714304C8.01812 0.854696 7.81428 1.05663 7.67256 1.29981L0.216708 14.1001C0.0748681 14.3432 0.000120145 14.6191 1.44745e-07 14.8999C-0.000119855 15.1808 0.0743761 15.4567 0.216004 15.7C0.357632 15.9432 0.561396 16.1452 0.8068 16.2857C1.0522 16.4261 1.3306 16.5 1.61397 16.5H7.21436C9.43328 16.5 11.0696 15.534 12.1956 13.6494L14.9293 8.9572L16.3935 6.44612L20.7879 13.9889H14.9293L13.4642 16.5ZM7.12304 13.9863L3.2147 13.9854L9.07332 3.92897L11.9965 8.9572L10.0393 12.318C9.29156 13.5408 8.44204 13.9863 7.12304 13.9863Z" fill="#00DC82"/>
</svg>
