<svg width="18" height="17" viewBox="0 0 18 17" fill="none" xmlns="http://www.w3.org/2000/svg">
<g clip-path="url(#clip0_140_244)">
<path d="M8.99165 10.1029C9.87688 10.1029 10.5945 9.38524 10.5945 8.50001C10.5945 7.61478 9.87688 6.89716 8.99165 6.89716C8.10642 6.89716 7.38879 7.61478 7.38879 8.50001C7.38879 9.38524 8.10642 10.1029 8.99165 10.1029Z" fill="#61DAFB"/>
<path d="M8.99168 11.7839C13.7417 11.7839 17.5924 10.3136 17.5924 8.49996C17.5924 6.68632 13.7417 5.21606 8.99168 5.21606C4.24165 5.21606 0.390991 6.68632 0.390991 8.49996C0.390991 10.3136 4.24165 11.7839 8.99168 11.7839Z" stroke="#61DAFB"/>
<path d="M6.14774 10.1419C8.52276 14.2556 11.7214 16.8552 13.292 15.9484C14.8627 15.0416 14.2106 10.9717 11.8356 6.85802C9.46061 2.74438 6.262 0.144733 4.69134 1.05156C3.12067 1.95838 3.77273 6.02827 6.14774 10.1419Z" stroke="#61DAFB"/>
<path d="M6.14776 6.858C3.77275 10.9716 3.12069 15.0415 4.69136 15.9484C6.26202 16.8552 9.46063 14.2555 11.8356 10.1419C14.2107 6.02825 14.8627 1.95836 13.292 1.05153C11.7214 0.144708 8.52278 2.74435 6.14776 6.858Z" stroke="#61DAFB"/>
</g>
<defs>
<clipPath id="clip0_140_244">
<rect width="17.9833" height="16" fill="white" transform="translate(0 0.5)"/>
</clipPath>
</defs>
</svg>
