<svg width="123" height="66" viewBox="0 0 123 66" fill="none" xmlns="http://www.w3.org/2000/svg">
<g clip-path="url(#clip0_110_53)">
<path fill-rule="evenodd" clip-rule="evenodd" d="M23.181 27.12C-21.839 41.67 49.631 50.72 64.511 50.59V43.15L75.721 54.35L64.511 65.56V58.59C35.251 59.71 -36.829 39.27 23.181 24.3V27.12ZM108.141 8.32C108.141 5.58 108.631 3.66 109.621 2.57C110.611 1.48 112.111 0.93 114.131 0.93C115.101 0.93 115.901 1.05 116.521 1.29C117.141 1.53 117.651 1.84 118.041 2.22C118.441 2.6 118.741 3.01 118.971 3.43C119.201 3.85 119.381 4.35 119.521 4.91C119.791 5.98 119.921 7.11 119.921 8.28C119.921 10.9 119.481 12.81 118.591 14.02C117.711 15.23 116.181 15.84 114.021 15.84C112.811 15.84 111.831 15.64 111.081 15.26C110.331 14.87 109.721 14.3 109.241 13.56C108.901 13.03 108.621 12.3 108.431 11.38C108.241 10.45 108.141 9.43 108.141 8.32ZM112.111 8.32C112.111 10.15 112.271 11.41 112.601 12.08C112.931 12.75 113.401 13.09 114.011 13.09C114.421 13.09 114.771 12.95 115.071 12.66C115.371 12.37 115.591 11.92 115.731 11.31C115.871 10.69 115.941 9.73 115.941 8.43C115.941 6.52 115.781 5.23 115.451 4.57C115.131 3.91 114.641 3.58 113.991 3.58C113.331 3.58 112.851 3.92 112.551 4.59C112.261 5.26 112.111 6.51 112.111 8.32ZM37.551 0V34.85H27.931V12.05C26.371 13.23 23.431 14.18 21.971 14.91C20.511 15.64 18.681 16.34 16.491 17L17.931 9.24C21.171 8.19 23.691 6.93 25.481 5.46C27.281 3.98 28.681 2.16 29.691 0L37.551 0ZM52.171 16.42C50.681 15.63 49.591 14.74 48.911 13.76C47.981 12.42 47.511 10.88 47.511 9.14C47.511 6.28 48.861 3.93 51.561 2.1C53.661 0.7 56.441 0 59.911 0C64.501 0 67.881 0.87 70.071 2.62C72.261 4.36 73.361 6.56 73.361 9.2C73.361 10.75 72.921 12.18 72.041 13.52C71.381 14.52 70.351 15.48 68.941 16.42C70.791 17.31 72.181 18.49 73.091 19.95C74.011 21.42 74.461 23.04 74.461 24.82C74.461 26.54 74.071 28.13 73.281 29.62C72.491 31.11 71.521 32.26 70.381 33.07C69.231 33.88 67.801 34.47 66.101 34.86C64.391 35.24 62.571 35.43 60.631 35.43C57.001 35.43 54.231 35 52.311 34.15C50.401 33.29 48.941 32.03 47.951 30.36C46.951 28.69 46.451 26.83 46.451 24.77C46.451 22.76 46.921 21.06 47.851 19.66C48.791 18.26 50.231 17.19 52.171 16.42ZM56.461 9.69C56.461 10.87 56.841 11.83 57.581 12.55C58.321 13.28 59.311 13.63 60.561 13.63C61.651 13.63 62.551 13.27 63.261 12.55C63.971 11.83 64.321 10.91 64.321 9.77C64.321 8.58 63.951 7.62 63.221 6.88C62.481 6.14 61.541 5.77 60.401 5.77C59.241 5.77 58.291 6.13 57.571 6.85C56.831 7.6 56.461 8.55 56.461 9.69ZM55.931 24.44C55.931 25.96 56.391 27.18 57.311 28.15C58.231 29.11 59.281 29.59 60.461 29.59C61.601 29.59 62.621 29.1 63.521 28.13C64.421 27.16 64.881 25.92 64.881 24.42C64.881 22.9 64.431 21.67 63.521 20.7C62.601 19.73 61.551 19.25 60.351 19.25C59.161 19.25 58.131 19.72 57.251 20.65C56.371 21.58 55.931 22.85 55.931 24.44ZM76.941 17.57C76.941 11.06 78.111 6.5 80.461 3.9C82.811 1.3 86.381 0 91.181 0C93.491 0 95.381 0.29 96.861 0.85C98.341 1.42 99.551 2.16 100.481 3.07C101.421 3.98 102.151 4.94 102.691 5.94C103.231 6.95 103.661 8.12 103.991 9.46C104.621 12.01 104.951 14.68 104.951 17.45C104.951 23.67 103.891 28.21 101.791 31.09C99.691 33.97 96.071 35.41 90.921 35.41C88.041 35.41 85.711 34.95 83.931 34.03C82.151 33.11 80.701 31.76 79.561 29.98C78.741 28.72 78.091 27 77.631 24.81C77.171 22.64 76.941 20.22 76.941 17.57ZM86.371 17.58C86.371 21.94 86.751 24.92 87.531 26.52C88.301 28.12 89.421 28.91 90.891 28.91C91.861 28.91 92.691 28.57 93.401 27.9C94.111 27.22 94.631 26.14 94.961 24.68C95.301 23.21 95.461 20.93 95.461 17.83C95.461 13.28 95.081 10.23 94.301 8.65C93.531 7.09 92.371 6.3 90.831 6.3C89.251 6.3 88.121 7.1 87.421 8.69C86.721 10.31 86.371 13.27 86.371 17.58ZM107.891 29.33C120.051 34.72 118.141 42.8 98.651 47.62C93.351 48.93 87.361 50.12 80.791 50.61V56.66C88.101 56.15 94.891 54.47 100.851 53.03C129.731 46.03 127.911 33.39 108.731 26.66C108.491 27.61 108.211 28.5 107.891 29.33Z" fill="#6B738E"/>
</g>
<defs>
<clipPath id="clip0_110_53">
<rect width="122.886" height="65.56" fill="white"/>
</clipPath>
</defs>
</svg>
