<svg width="16" height="17" viewBox="0 0 16 17" fill="none" xmlns="http://www.w3.org/2000/svg">
<path d="M14.6606 8.37834C14.6836 6.958 14.3636 5.269 13.697 3.28734L13.1743 1.73334L12.4643 3.211C12.4263 3.29 12.383 3.36734 12.3376 3.44367C11.1713 2.44234 9.65798 1.83334 7.99998 1.83334C4.31798 1.83334 1.33331 4.818 1.33331 8.5C1.33331 12.182 4.31798 15.1667 7.99998 15.1667C11.682 15.1667 14.6666 12.182 14.6666 8.5C14.6666 8.459 14.6613 8.41934 14.6606 8.37834Z" fill="#8BC34A"/>
<path d="M13.1283 11.3527C12.0873 12.7867 10.2447 12.8637 8.51034 12.8333H6.25H5.604C7.08 12.3023 7.95834 12.176 8.85534 11.7C10.5447 10.8117 12.2147 8.868 12.5623 6.846C11.919 8.79133 9.96934 10.4627 8.19267 11.1423C6.97534 11.6067 4.77667 12.0573 4.77667 12.0573L4.68767 12.009C3.191 11.256 3.14567 7.90467 5.86667 6.82267C7.058 6.34833 8.19767 6.609 9.48467 6.29167C10.8587 5.95433 12.448 4.889 13.0947 3.5C13.8187 5.72233 14.69 9.202 13.1283 11.3527ZM5.22267 13.315C5.12867 13.4317 4.985 13.5 4.835 13.5C4.56067 13.5 4.33667 13.2743 4.33667 13C4.33667 12.7257 4.56234 12.5 4.835 12.5C4.94867 12.5 5.06067 12.5393 5.14867 12.612C5.362 12.785 5.39534 13.1017 5.22267 13.315Z" fill="white"/>
</svg>
