<svg width="32" height="464" viewBox="0 0 32 464" fill="none" xmlns="http://www.w3.org/2000/svg">
<path d="M0 16.5C0 25.3366 7.16344 32.5 16 32.5C24.8366 32.5 32 25.3366 32 16.5C32 7.66344 24.8366 0.5 16 0.5C7.16344 0.5 0 7.66344 0 16.5ZM0 240C0 248.837 7.16344 256 16 256C24.8366 256 32 248.837 32 240C32 231.163 24.8366 224 16 224C7.16344 224 0 231.163 0 240ZM13 16.5V240H19V16.5H13Z" fill="#434B70"/>
<path d="M2.66667 240C2.66667 247.364 8.6362 253.333 16 253.333C23.3638 253.333 29.3333 247.364 29.3333 240C29.3333 232.636 23.3638 226.667 16 226.667C8.6362 226.667 2.66667 232.636 2.66667 240ZM13.5 240V463.5H18.5V240H13.5Z" fill="url(#paint0_linear_215_76)"/>
<defs>
<linearGradient id="paint0_linear_215_76" x1="16.5" y1="240" x2="16.5" y2="463.5" gradientUnits="userSpaceOnUse">
<stop stop-color="#434B70"/>
<stop offset="1" stop-color="#0E132B"/>
</linearGradient>
</defs>
</svg>
