<svg width="38" height="38" viewBox="0 0 38 38" fill="none" xmlns="http://www.w3.org/2000/svg">
<rect width="38" height="38" rx="19" fill="white" fill-opacity="0.08"/>
<g clip-path="url(#clip0_130_57)">
<path d="M18.9998 13.3928C20.7191 13.3928 22.2643 13.9862 23.3049 15.0537C24.1612 15.1651 24.969 15.5148 25.6362 16.0629C24.4687 13.6094 22.0504 12.2373 18.9998 12.2373C15.9907 12.2373 13.5558 13.6076 12.3744 16.0536C12.9861 15.5544 13.7159 15.2206 14.4937 15.0843C15.5149 13.9705 17.124 13.3928 18.9998 13.3928Z" fill="white"/>
<path d="M22.7036 23.3475C21.7403 23.3486 20.8146 22.9731 20.1242 22.3012L20.1224 22.2994C20.0426 22.2394 19.957 22.1876 19.8669 22.1448C19.5955 22.0188 19.2994 21.9552 19.0003 21.9587C18.617 21.9587 18.3253 22.054 18.1346 22.1448C18.0441 22.1876 17.9582 22.2394 17.8781 22.2994L17.8763 22.3012C17.441 22.7239 16.9085 23.033 16.3257 23.2016C15.7428 23.3702 15.1275 23.393 14.5338 23.268C13.9401 23.1431 13.3862 22.8741 12.9208 22.4849C12.4554 22.0957 12.0927 21.5981 11.8647 21.0358C11.6367 20.4736 11.5503 19.8639 11.6132 19.2605C11.676 18.657 11.8862 18.0782 12.2251 17.5751C12.5641 17.0719 13.0215 16.6596 13.5571 16.3747C14.0927 16.0897 14.6902 15.9406 15.2969 15.9407H22.7036C23.6858 15.9407 24.6278 16.3309 25.3223 17.0254C26.0169 17.7199 26.407 18.6619 26.407 19.6441C26.407 20.6263 26.0169 21.5682 25.3223 22.2628C24.6278 22.9573 23.6858 23.3475 22.7036 23.3475Z" fill="white"/>
</g>
<defs>
<clipPath id="clip0_130_57">
<rect width="14.8136" height="14.8136" fill="white" transform="translate(11.5933 12.2373)"/>
</clipPath>
</defs>
</svg>
