<svg width="17" height="17" viewBox="0 0 17 17" fill="none" xmlns="http://www.w3.org/2000/svg">
<g clip-path="url(#clip0_140_295)">
<path d="M15.8274 2.85738L8.54032 15.8879C8.38986 16.1569 8.00333 16.1585 7.85061 15.8908L0.419076 2.85864C0.252707 2.56688 0.502185 2.21349 0.832795 2.27259L8.12764 3.5765C8.17418 3.58482 8.22182 3.58474 8.26836 3.57626L15.4107 2.27446C15.7402 2.2144 15.9908 2.56506 15.8274 2.85738Z" fill="url(#paint0_linear_140_295)"/>
<path d="M11.6026 0.562357L6.20995 1.61902C6.12131 1.63639 6.05569 1.7115 6.05034 1.80164L5.71862 7.40416C5.71082 7.53612 5.832 7.63854 5.9608 7.60884L7.46218 7.26234C7.60266 7.22994 7.72959 7.35367 7.70072 7.49493L7.25466 9.67921C7.22464 9.82622 7.36266 9.95192 7.50622 9.90832L8.43355 9.62658C8.57731 9.58293 8.71545 9.70899 8.68503 9.85612L7.97616 13.2871C7.93181 13.5017 8.21727 13.6188 8.33632 13.4348L8.41585 13.3119L12.8101 4.54246C12.8836 4.39563 12.7568 4.2282 12.5955 4.25932L11.0501 4.55759C10.9048 4.58559 10.7813 4.45034 10.8223 4.30825L11.8309 0.811564C11.872 0.669237 11.748 0.533873 11.6026 0.562357Z" fill="url(#paint1_linear_140_295)"/>
</g>
<defs>
<linearGradient id="paint0_linear_140_295" x1="0.23763" y1="1.8069" x2="9.30693" y2="14.1237" gradientUnits="userSpaceOnUse">
<stop stop-color="#41D1FF"/>
<stop offset="1" stop-color="#BD34FE"/>
</linearGradient>
<linearGradient id="paint1_linear_140_295" x1="7.70896" y1="0.849239" x2="9.34955" y2="12.1035" gradientUnits="userSpaceOnUse">
<stop stop-color="#FFEA83"/>
<stop offset="0.0833333" stop-color="#FFDD35"/>
<stop offset="1" stop-color="#FFA800"/>
</linearGradient>
<clipPath id="clip0_140_295">
<rect width="16.2376" height="16" fill="white" transform="translate(0 0.5)"/>
</clipPath>
</defs>
</svg>
