<svg width="60" height="60" viewBox="0 0 60 60" fill="none" xmlns="http://www.w3.org/2000/svg">
<path d="M30.476 3.75C16.2428 3.75 4.7032 15.1993 4.7032 29.3241C4.7032 34.1557 6.05461 38.6745 8.40152 42.5296L3.75 56.25L18.0192 51.717C21.7116 53.7425 25.9581 54.8981 30.476 54.8981C44.7111 54.8981 56.25 43.4471 56.25 29.3241C56.25 15.1993 44.7111 3.75 30.476 3.75ZM43.2919 39.0363C42.6855 40.5395 39.9434 41.9113 38.7334 41.9745C37.5247 42.0386 37.4903 42.9112 30.9006 40.0486C24.3117 37.1852 20.3476 30.2231 20.0351 29.7748C19.7223 29.328 17.4827 26.1364 17.6036 22.9246C17.7252 19.7121 19.4841 18.1965 20.1118 17.5662C20.7389 16.9349 21.4579 16.8218 21.8968 16.8146C22.4157 16.8062 22.7518 16.7992 23.1359 16.8134C23.5195 16.8279 24.0959 16.7331 24.5948 18.0601C25.0936 19.387 26.2874 22.6484 26.4401 22.9807C26.5927 23.3134 26.6871 23.6986 26.452 24.1257C26.2162 24.5538 26.0955 24.8212 25.7535 25.1902C25.4095 25.5591 25.03 26.0154 24.7232 26.2975C24.381 26.6098 24.0236 26.9504 24.3833 27.618C24.7429 28.2852 25.9833 30.4723 27.873 32.2746C30.3018 34.5915 32.3962 35.36 33.0408 35.7102C33.6871 36.0622 34.0727 36.0231 34.4735 35.6013C34.8724 35.1796 36.189 33.7561 36.6527 33.1206C37.1162 32.4833 37.5505 32.6081 38.1459 32.8477C38.741 33.0881 41.9143 34.7878 42.5607 35.1388C43.2064 35.4891 43.638 35.6695 43.7924 35.9474C43.9467 36.2263 43.898 37.533 43.2919 39.0363Z" fill="#7094DA"/>
</svg>
