<svg width="18" height="17" viewBox="0 0 18 17" fill="none" xmlns="http://www.w3.org/2000/svg">
<g clip-path="url(#clip0_140_199)">
<path d="M3.08761 0H14.3483C16.0556 0 17.4359 1.38034 17.4359 3.08761V13.9124C17.4359 15.6197 16.0556 17 14.3483 17H3.08761C1.38034 17 0 15.6197 0 13.9124V3.08761C0 1.38034 1.38034 0 3.08761 0Z" fill="#470137"/>
<path d="M9.16841 4.46792L6.98892 8.06408L9.31371 11.8782C9.32824 11.9072 9.3355 11.9363 9.32824 11.9654C9.32097 11.9944 9.29191 11.9726 9.24832 11.9799H7.58465C7.46841 11.9799 7.38849 11.9726 7.33764 11.9C7.18507 11.5948 7.02525 11.297 6.87268 10.9919C6.72012 10.694 6.55302 10.3889 6.37866 10.0765C6.20431 9.76408 6.02995 9.45168 5.85559 9.13202H5.84106C5.68849 9.44442 5.5214 9.75681 5.35431 10.0692C5.18721 10.3816 5.02012 10.694 4.86029 10.9991C4.69319 11.3042 4.5261 11.6166 4.35901 11.9145C4.32995 11.9872 4.27183 11.9944 4.19191 11.9944H2.59362C2.56456 11.9944 2.54277 12.0089 2.54277 11.9726C2.5355 11.9436 2.54277 11.9145 2.5573 11.8927L4.8167 8.18758L2.61542 4.46066C2.59362 4.4316 2.58636 4.40254 2.60089 4.38801C2.61542 4.36621 2.64448 4.35895 2.67354 4.35895H4.32268C4.35901 4.35895 4.39533 4.36621 4.42439 4.37348C4.45345 4.38801 4.47525 4.4098 4.49704 4.43886C4.63507 4.75126 4.7949 5.06365 4.962 5.37604C5.13636 5.68843 5.30345 5.99356 5.48507 6.29869C5.65943 6.60382 5.81926 6.90895 5.97183 7.22134H5.98636C6.13892 6.90168 6.29875 6.58929 6.45858 6.28416C6.61841 5.97903 6.7855 5.67391 6.9526 5.36878C7.11969 5.06365 7.27952 4.75126 7.43935 4.45339C7.44661 4.42433 7.46114 4.39527 7.48294 4.38074C7.512 4.36621 7.54106 4.35895 7.57738 4.36621H9.11029C9.14661 4.35895 9.18294 4.38074 9.1902 4.41707C9.19747 4.42433 9.18294 4.45339 9.16841 4.46792Z" fill="#FF61F6"/>
<path d="M12.5248 12.1325C11.9872 12.1397 11.4495 12.0307 10.9628 11.8055C10.5051 11.5948 10.1273 11.2461 9.86579 10.8175C9.59698 10.3743 9.46622 9.8222 9.46622 9.16109C9.45895 8.62348 9.59698 8.09314 9.86579 7.62818C10.1419 7.15596 10.5414 6.76365 11.0209 6.50211C11.5295 6.21878 12.1397 6.08074 12.859 6.08074C12.8953 6.08074 12.9461 6.08074 13.0115 6.08801C13.0769 6.09527 13.1495 6.09527 13.2367 6.10254V3.80681C13.2367 3.75596 13.2585 3.7269 13.3094 3.7269H14.7842C14.8205 3.71963 14.8495 3.74869 14.8568 3.77775C14.8568 3.78502 14.8568 3.79228 14.8568 3.79228V10.7085C14.8568 10.8393 14.8641 10.9846 14.8713 11.1444C14.8859 11.297 14.8931 11.4423 14.9004 11.5658C14.9004 11.6166 14.8786 11.6602 14.8278 11.682C14.45 11.8419 14.0504 11.9581 13.6436 12.0307C13.2731 12.0961 12.9025 12.1325 12.5248 12.1325ZM13.2367 10.6795V7.48288C13.1713 7.46835 13.106 7.45382 13.0406 7.44656C12.9607 7.43929 12.8807 7.43203 12.8008 7.43203C12.5175 7.43203 12.2342 7.49015 11.9799 7.62092C11.7329 7.74442 11.5222 7.92604 11.3624 8.15852C11.2025 8.391 11.1226 8.70339 11.1226 9.08117C11.1154 9.33545 11.159 9.58972 11.2461 9.82946C11.3188 10.0256 11.4278 10.2 11.5731 10.3453C11.7111 10.476 11.8782 10.5778 12.0671 10.6359C12.2632 10.7013 12.4666 10.7303 12.6701 10.7303C12.779 10.7303 12.8807 10.7231 12.9752 10.7158C13.0696 10.7231 13.1495 10.7085 13.2367 10.6795Z" fill="#FF61F6"/>
</g>
<defs>
<clipPath id="clip0_140_199">
<rect width="17.4359" height="17" fill="white"/>
</clipPath>
</defs>
</svg>
